<?xml version="1.0" encoding="utf-8"?>
<!-- Generator: Adobe Illustrator 14.0.0, SVG Export Plug-In . SVG Version: 6.00 Build 43363)  -->
<!DOCTYPE svg PUBLIC "-//W3C//DTD SVG 1.1//EN" "http://www.w3.org/Graphics/SVG/1.1/DTD/svg11.dtd">
<svg version="1.1" id="Layer_1" xmlns="http://www.w3.org/2000/svg" xmlns:xlink="http://www.w3.org/1999/xlink" x="0px" y="0px"
	 width="473.977px" height="533.973px" viewBox="0 0 473.977 533.973" enable-background="new 0 0 473.977 533.973"
	 xml:space="preserve">
<radialGradient id="SVGID_1_" cx="370.3604" cy="38.5928" r="200.5305" gradientTransform="matrix(1 0 0 -1 -126 317.9727)" gradientUnits="userSpaceOnUse">
	<stop  offset="0.0613" style="stop-color:#CCE9E4"/>
	<stop  offset="0.3335" style="stop-color:#C4E2DF"/>
	<stop  offset="0.7585" style="stop-color:#AED1D2"/>
	<stop  offset="1" style="stop-color:#9EC4C9"/>
</radialGradient>
<ellipse fill="url(#SVGID_1_)" stroke="#000000" cx="244.359" cy="279.38" rx="204.001" ry="197"/>
<g id="basic_shapes" display="none">
	<g id="zhnJ5y_1_" display="inline">
		
			<image overflow="visible" enable-background="new    " width="1024" height="768" id="zhnJ5y_2_" xlink:href="3F32F2F1.png"  transform="matrix(-0.3623 0 0 0.3623 875.3965 120.147)">
		</image>
	</g>
	
		<ellipse transform="matrix(0.7872 0.6167 -0.6167 0.7872 239.7314 -161.4126)" display="inline" fill="#FFFFFF" stroke="#27AAE1" cx="353.753" cy="266.666" rx="81.047" ry="55.5"/>
	<ellipse display="inline" fill="#FFFFFF" stroke="#27AAE1" cx="305.904" cy="194.897" rx="29.493" ry="34.5"/>
	<polygon display="inline" fill="#FFFFFF" stroke="#27AAE1" points="315.396,161.397 297.396,159.397 307.396,135.397 
		315.396,151.397 	"/>
	<polygon display="inline" fill="#FFFFFF" stroke="#27AAE1" points="291.396,199.397 304.396,218.397 315.396,198.397 	"/>
	
		<rect x="458.385" y="259.396" transform="matrix(-0.5261 0.8504 -0.8504 -0.5261 1006.4606 99.9426)" display="inline" fill="#FFFFFF" stroke="#27AAE1" width="33.998" height="141.991"/>
</g>
<g id="brush_strokes" display="none">
	
		<image display="inline" overflow="visible" enable-background="new    " width="320" height="240" xlink:href="3F32F2F3.jpeg"  transform="matrix(-6.338151e-08 -1.45 1.45 -6.338151e-08 121.3955 541.3975)">
	</image>
</g>
<g id="shadow">
	<path opacity="0.2" enable-background="new    " d="M460.402,391.214c-16.768,2.579-39.045-2.625-44.862-4.106v-1.875
		c0-14.862-3.765-20.931-15.987-20.931h-69.516c0.701-0.616,1.338-1.214,1.918-1.79c5.723-3.697,9.118-6.242,9.118-6.242
		s0.255-0.39,0.706-1.08c5.924-1.977,9.873-8.924,11.193-17.633c7.388-11.912,16.184-26.729,20.061-35.68
		c7.29-16.822,1.123-120.56-1.121-134.577c-1.633-10.206-5.938-26.348-7.943-35.676c0.419-0.133,0.653-0.211,0.653-0.211
		s-1.183-5.185-1.035-9.12c0.603-1.659,1.397-3.091,1.836-3.82c1.534-0.113,3.034-0.38,4.436-0.889l0.022-0.215
		c7.938-2.047,16.797-8.759,16.797-8.759s11.589,2.243,11.215-1.122c-0.375-3.365-23.552-28.411-23.552-28.411
		c0-0.732-0.408-1.856-1.093-3.176l0.348-0.283l-1.114-1.09c-2.782-4.659-8.035-10.729-11.224-11.525
		c-4.481-1.122-13.458-10.093-16.819-11.215c-3.362-1.121-20.188-23.551-28.036-24.672c-7.853-1.122-20.747-5.046-20.747-5.046
		l0.497,27.993c-0.924,1.884-2.438,5.024-3.479,7.424c-2.708,2.811-7.126,6.989-13.843,12.247
		c-12.897,10.092-31.963,47.662-41.495,54.391c-9.533,6.728-26.355,30.28-26.355,30.28c-16.261,5.608-25.794,34.766-34.205,49.344
		c-3.046,5.28-5.667,15.493-7.637,28.621c-1.697-0.034-4.526,0.047-7.583,0.702c-4.705,0.205-7.771,2.236-9.768,4.993
		c-0.392,0.412-0.755,0.86-1.101,1.332c-5.615-11.689-19.481-8.057-19.481-8.057l-1.951,1.166l-0.456,4.285l-3.364-1.023
		l-1.728,1.324c0,0-1.84,3.69-2.332,8.201c-0.757,2.84-0.349,5.241,0.766,7.265c0.905,2.356,2.598,4.54,5.517,6.16
		c1.972,1.096,3.905,1.976,5.771,2.65c-1.238-0.169-2.558-0.283-3.98-0.326c-16.014-0.48-16.969,16.205-16.969,16.205l0.505,2.214
		l0.539,0.241c-1.127,0.065-1.803,0.17-1.803,0.17l-2.957,1.378l-1.278,6.066l-4.656-1.959l-2.662,1.64c0,0-3.182,5.026-4.539,11.42
		c-1.417,3.817-1.22,7.231-0.008,10.246c0.921,3.575,3.021,7.022,7.033,9.817c2.655,1.851,5.284,3.389,7.848,4.623
		c-1.741-0.422-3.607-0.775-5.629-1.043c-22.812-3.021-26.615,20.682-26.615,20.682l0.401,3.236l5.371,3.088l-3.299,3.824
		l0.736,3.033c0,0,3.772,4.551,9.401,7.812c2.809,2.24,5.674,3.13,8.478,3.078c1.402,0.192,2.844,0.23,4.314,0.057
		c-4.596,3.044-6.616,8.924-6.616,18.357c0,0-31.403,1.498-50.841-1.492l20.935,29.901l-29.906,29.906c0,0,40.95-5.85,62.823-5.13
		l-0.025,0.281c0.791-0.047,1.495-0.112,2.162-0.188c1.988,0.114,3.783,0.292,5.32,0.549c5.454,0.908,8.279-3.85,9.576-10.905
		c2.707-0.185,6.165-0.413,10.213-0.684c-4.552,4.24-9.12,8.403-13.627,12.316c-25.913,22.486-62.745,55.539-56.084,64.723
		c2.922,4.036,9.643,2.535,16.947-2.188c-2.77,4.922-3.693,8.799-1.916,11.04c3.022,3.817,9.442,2.196,16.354-2.578
		c-3.901,6.729-4.88,12.733-1.106,15.422c9.243,6.576,41.971-30.541,64.229-56.646c13.476-15.801,29.929-32.369,42.389-46.33
		c14.422-0.854,28.228-1.613,39.059-2.107c82.193-3.748,142.915,6.07,160.674,9.402c1.366,6.571,4.182,10.905,9.404,10.035
		c17.945-2.99,55.283,8.974,55.283,8.974l-14.909-34.395L460.402,391.214z M93.095,514.06c-0.631-0.352-0.942-0.938-0.815-1.756
		c0.058-0.37,0.331-0.932,0.757-1.627c0.304-0.334,0.61-0.669,0.923-1.012L93.095,514.06z M127.735,339.508
		c0.62,0.786,1.354,1.477,2.188,2.035c-0.839,0.314-1.676,0.701-2.507,1.188C127.629,341.639,127.739,340.561,127.735,339.508z
		 M139.616,298.791c-0.22-1.191-0.505-2.295-0.827-3.346c0.529,0.676,1.089,1.303,1.667,1.881c-0.188,0.482-0.366,0.982-0.524,1.506
		c-0.071,0.234-0.129,0.463-0.196,0.695C139.692,299.279,139.663,299.042,139.616,298.791z M144.583,331.461
		c-0.106-0.468-0.248-0.921-0.42-1.359c0.336,0.254,0.688,0.488,1.048,0.711C144.999,331.027,144.78,331.24,144.583,331.461z
		 M140.988,341.247c0.01,0.294,0.03,0.591,0.058,0.89c-0.272-0.131-0.545-0.26-0.82-0.373
		C140.489,341.602,140.743,341.43,140.988,341.247z M183.891,360.581c0.995,1.22,2.131,2.464,3.419,3.722h-9.223
		C180.6,363.046,182.602,361.614,183.891,360.581z M138.057,319.121c0.434,2.352,1.15,4.461,2.144,6.283
		c-1.444-0.875-3.133-1.387-4.944-1.387c-0.554,0-1.094,0.058-1.623,0.146C135.428,322.932,136.923,321.252,138.057,319.121z
		 M157.089,364.302c-0.01-0.032-0.021-0.067-0.031-0.101c0.06,0.033,0.12,0.066,0.18,0.101H157.089z M129.214,326.166
		c-1.872,1.523-3.15,3.74-3.457,6.258c-1.505-2.472-3.89-4.648-7.215-6.4C122.475,326.95,126.091,326.996,129.214,326.166z
		 M112.178,363.293c0.508-0.385,0.994-0.773,1.479-1.165c-0.216,0.752-0.393,1.489-0.529,2.211
		c-1.001,0.033-1.963,0.101-2.862,0.226C110.903,364.186,111.541,363.775,112.178,363.293z M69.367,498.228l6.114-0.731
		c-1.84,1.414-3.297,2.357-4.031,2.479C70.294,500.168,69.573,499.498,69.367,498.228z M148.01,466.931l41.128-43.384
		c0.345-0.021,0.69-0.042,1.034-0.062C177.842,436.233,162.308,452.253,148.01,466.931z"/>
</g>
<g id="dogwoods_behind_birds">
	<g>
		<g>
			<path fill="#F7E1D8" stroke="#000000" stroke-width="3" d="M107.441,221.214l3.364,1.023l0.456-4.285l1.951-1.167
				c0,0,16.163-4.246,20.657,11.128c5.831,19.972-7.87,25.323-24.206,16.25c-11.552-6.413-3.951-21.626-3.951-21.626
				L107.441,221.214z"/>
			<path stroke="#000000" stroke-width="0.5" d="M105.594,225.898c0,0-1.269,19.811,16.136,21.832
				C121.73,247.73,94.621,243.099,105.594,225.898z"/>
		</g>
		<g>
			<path fill="#F7E1D8" stroke="#000000" stroke-width="3" d="M96.914,269.548l2.013-2.882l-3.937-1.76l-0.505-2.214
				c0,0,0.955-16.686,16.969-16.205c20.795,0.624,21.649,15.306,7.973,28.042c-9.667,9.002-21.788-2.93-21.788-2.93L96.914,269.548z
				"/>
			<path stroke="#000000" stroke-width="0.5" d="M100.797,272.753c0,0,17.686,6.54,24.979-9.389
				C125.776,263.365,113.767,288.504,100.797,272.753z"/>
		</g>
		<g>
			<path fill="#FFFFFF" stroke="#000000" stroke-width="2" d="M169.44,260.298l-3.93,1.181l2.844,4.703l-0.94,2.492
				c0,0-11.896,15.085-27.824,2.286c-20.69-16.628-11.936-31.214,10.274-32.745c15.7-1.083,20.183,19.577,20.183,19.577
				L169.44,260.298z"/>
			<path stroke="#000000" stroke-width="0.5" d="M167.595,254.262c0,0-13.651-19.837-31.486-10.355
				C136.108,243.907,164.759,229.328,167.595,254.262z"/>
		</g>
		<g>
			<path fill="#F7E1D8" stroke="#000000" stroke-width="2" d="M154.747,219.104l-0.083,3.684l4.81-1.127l1.864,1.485
				c0,0,9.574,14.324-5.797,24.381c-19.959,13.06-29.985,1.559-25.108-17.821c3.448-13.695,22.346-11.812,22.346-11.812
				L154.747,219.104z"/>
			<path stroke="#000000" stroke-width="0.5" d="M149.084,219.009c0,0-21.818,4.044-18.688,21.888
				C130.396,240.897,126.985,214.537,149.084,219.009z"/>
		</g>
		<g>
			<path fill="#F7E1D8" stroke="#000000" stroke-width="3" d="M138.604,288.221l-2.464-3.115l-3.143,3.388l-2.543-0.3
				c0,0-17.683-7.092-12.104-23.282c7.241-21.037,23.341-16.521,32.739,2.117c6.646,13.185-10.038,21.207-10.038,21.207
				L138.604,288.221z"/>
			<path stroke="#000000" stroke-width="0.5" d="M143.289,285.423c0,0,12.468-18.231-2.392-31.526
				C140.896,253.897,164.361,277.939,143.289,285.423z"/>
		</g>
		
			<radialGradient id="SVGID_2_" cx="251.4951" cy="70.0562" r="6.6675" gradientTransform="matrix(1 0 0 -1 -126 317.9727)" gradientUnits="userSpaceOnUse">
			<stop  offset="0" style="stop-color:#F1BD08"/>
			<stop  offset="0.3267" style="stop-color:#F1C00C"/>
			<stop  offset="0.6758" style="stop-color:#F1CA19"/>
			<stop  offset="1" style="stop-color:#F1D92C"/>
		</radialGradient>
		<path fill="url(#SVGID_2_)" stroke="#000000" stroke-width="3" d="M118.861,248.593c0.375,3.665,3.652,6.331,7.314,5.954
			c3.66-0.371,6.326-3.647,5.954-7.306c-0.375-3.665-3.648-6.328-7.31-5.956C121.155,241.661,118.489,244.93,118.861,248.593z"/>
	</g>
</g>
<g id="bird_outline">
	
		<linearGradient id="SVGID_3_" gradientUnits="userSpaceOnUse" x1="169.853" y1="-86.312" x2="407.4902" y2="-86.312" gradientTransform="matrix(1 0 0 -1 -126 317.9727)">
		<stop  offset="0" style="stop-color:#C4473D"/>
		<stop  offset="0.458" style="stop-color:#C8433D"/>
		<stop  offset="0.9475" style="stop-color:#D5383D"/>
		<stop  offset="1" style="stop-color:#D7363D"/>
	</linearGradient>
	<polyline fill="url(#SVGID_3_)" stroke="#000000" stroke-width="2" points="266.959,307.923 78.618,506.593 74.14,504.378 
		76.923,490.246 64.121,495.489 59.77,491.625 60.641,482.561 48.937,483.967 43.853,480.37 229.464,301.977 281.49,305.781 	"/>
	
		<radialGradient id="SVGID_4_" cx="389.5977" cy="169.3125" r="154.0097" gradientTransform="matrix(1 0 0 -1.5 -126 445.6338)" gradientUnits="userSpaceOnUse">
		<stop  offset="0" style="stop-color:#D76B3D"/>
		<stop  offset="0.1838" style="stop-color:#D4673B"/>
		<stop  offset="0.3805" style="stop-color:#CD5A33"/>
		<stop  offset="0.5833" style="stop-color:#C04427"/>
		<stop  offset="0.7902" style="stop-color:#AD2616"/>
		<stop  offset="0.9985" style="stop-color:#960000"/>
		<stop  offset="1" style="stop-color:#960000"/>
	</radialGradient>
	<path fill="url(#SVGID_4_)" stroke="#000000" stroke-width="6" d="M277.658,7.516c0,0,12.896,3.924,20.746,5.046
		c7.852,1.121,24.674,23.552,28.036,24.672c3.361,1.122,12.338,10.093,16.819,11.215c4.487,1.122,13.083,12.711,13.083,16.074
		c0,0,23.18,25.045,23.555,28.411c0.374,3.364-11.218,1.122-11.218,1.122s-12.334,9.347-20.933,9.347c0,0-2.244,3.363-2.805,6.728
		c-0.562,3.364,6.729,28.597,8.972,42.616c2.244,14.018,8.411,117.755,1.121,134.577c-7.288,16.822-31.96,54.392-31.96,54.392
		s-51.589,38.69-91.962,33.644c-30.604-3.823-68.783-35.887-69.904-41.116c-0.878-4.103-1.868-8.787-1.868-8.787
		s-10.093-3.737-11.217-21.867c-2.958-47.733,2.244-99.812,10.655-114.392c8.41-14.579,17.944-43.736,34.205-49.344
		c0,0,16.822-23.552,26.355-30.28c9.532-6.729,28.601-44.299,41.495-54.391c12.896-10.094,17.381-16.262,17.381-16.262
		L277.658,7.516z"/>
</g>
<linearGradient id="SVGID_5_" gradientUnits="userSpaceOnUse" x1="444.9883" y1="234.9868" x2="502.9883" y2="234.9868" gradientTransform="matrix(1 0 0 -1 -126 317.9727)">
	<stop  offset="0" style="stop-color:#F1BD08"/>
	<stop  offset="0.3267" style="stop-color:#F1C00C"/>
	<stop  offset="0.6758" style="stop-color:#F1CA19"/>
	<stop  offset="1" style="stop-color:#F1D92C"/>
</linearGradient>
<polygon fill="url(#SVGID_5_)" stroke="#000000" points="346.988,59.986 376.988,89.486 376.988,94.486 367.988,92.486 
	362.488,96.986 349.988,102.986 338.988,105.986 318.988,95.986 "/>
<g id="bird_detail">
	<path d="M278.965,33.87c0,0,14.204-2.991,18.689-2.243c0,0-20.93,11.216-23.549,14.206C271.49,48.823,278.965,33.87,278.965,33.87z
		"/>
	<path fill="none" stroke="#000000" stroke-width="2" d="M356.346,64.523c0,0-9.719,0-12.335,4.486
		c-2.617,4.487-4.484,8.225-6.729,10.469c-2.243,2.243-2.243,10.842-3.364,12.335c-1.12,1.494-7.849,7.852-4.86,8.597
		c2.992,0.748,14.579,5.609,22.807,2.619"/>
	<path d="M311.303,163.12c0,0-2.938,12.309-3.553,28.502c-0.72,18.944,0.467,42.993-0.935,64.299
		c-2.257,34.272-4.3,83.737,12.336,85.231c10.738,0.967,17.012-12.241,16.262-27.193c-0.749-14.955-4.485-17.385-4.485-17.385
		s0.472,28.412-2.521,31.4c-2.993,2.988-10.562-2.522-12.059-13.736C314.853,303.025,311.303,169.102,311.303,163.12z"/>
	<path d="M158.784,324.521c0,0,5.808-3.15,5.418-1.498c-3.739,15.888,47.788,69.082,112.333,40.562c0,0-28.598,22.431-74.577,5.047
		C155.977,351.25,158.784,330.127,158.784,324.521z"/>
	<path d="M344.104,49.851l-14.3-7.009c0,0-2.239,2.242-12.335-2.243c-10.094-4.485-11.214,2.243-13.457,5.607
		c-2.244,3.365,10.096,8.973,10.096,22.43c0,13.457-15.701,20.188-15.701,29.158c0,8.971,16.819,23.552,25.794,23.552
		c8.972,0,22.429-4.486,22.429-4.486s-2.988-13.085,1.123-13.458l-18.693-2.991l3.556-7.383l1.963-9.253L342.423,72l8.691-7.289
		l4.483-3.646L344.104,49.851z"/>
	<path d="M308.688,217.606c0,0-9.533,93.64-23.738,112.333c-14.135,18.594-44.858,46.728-79.999,32.521
		c0,0,14.205,17.94,55.323,9.72c41.119-8.225,58.922-27.121,57.942-31.027C317.095,336.669,308.688,217.606,308.688,217.606z"/>
	<path d="M184.014,165.643c0,0-8.269,24.511-12.055,68.69c-5.047,58.877,0.154,99.799,0,101.774
		c-0.842,10.652-7.851,1.121-7.851-1.965c0-3.082-4.073-55.83-1.401-98.785C165.229,194.802,178.407,169.287,184.014,165.643z"/>
	<path d="M325.881,222.559c0,0-2.937,5.641-3.553,13.066c-0.72,8.686,0.889,19.571,1.31,28.989
		c0.696,15.743,6.458,36.354,10.938,37.848c6.729,2.244,16.17-3.894,15.42-10.749c-0.749-6.855-7.854-18.031-7.854-18.031
		s7.753,18.16,0.562,22.617c-2.8,1.734-10.002-4.113-11.496-9.257C329.713,281.902,325.881,225.299,325.881,222.559z"/>
	<path d="M325.333,198.528c0,0-2.366,5.903-2.246,13.355c0.139,8.712,2.814,19.387,4.161,28.715
		c2.243,15.6,10.01,35.544,14.609,36.587c6.916,1.566,15.71-5.471,14.285-12.221c-1.422-6.747-9.519-14.277-9.519-14.277
		s7.29,16.263,2.244,20.375c-2.553,2.08-9.89-3.923-11.882-8.895C334.998,257.204,325.604,201.256,325.333,198.528z"/>
	<path d="M336.021,210.461c0,0-2.546,2.868-3.516,6.945c-1.13,4.766-0.714,10.97-1.06,16.247c-0.587,8.824,2.188,20.841,5.373,22.06
		c7.376,2.828,12.493-2.82,12.422-6.705c-0.07-3.883-6.511-12.198-6.511-12.198s4.826,15.563-0.406,16.123
		c-1.919,0.208-6.16-3.11-6.897-6.105C334.694,243.829,335.831,211.988,336.021,210.461z"/>
	<path d="M349.777,172.694c0,0-2.92,4.372-4.402,10.528c-1.729,7.201-2.077,16.52-3.079,24.469
		c-1.684,13.291-0.359,31.272,2.695,33.062c4.589,2.698,12.316-1.312,12.729-7.151c0.407-5.842-4.42-21.423-4.42-21.423
		s1.551,21.879-1.626,24.308c-2.188,1.672-5.795-4.666-6.168-9.159C345.134,222.834,349.4,174.994,349.777,172.694z"/>
	<path d="M372.702,91.72c0,0-9.064-2.151-14.859-3.458c-5.633-1.271-11.216-3.831-16.262-4.487c-3.337-0.433-10.092,0-10.092,0
		l8.971,2.243c0,0,6.916,1.963,9.904,2.899c2.992,0.935,16.819,5.512,16.819,5.512L372.702,91.72z"/>
	<path fill="#FFFFFF" d="M328.31,61.533c0,2.891,2.344,5.232,5.232,5.232c2.893,0,5.236-2.342,5.236-5.232
		c0-2.889-2.347-5.232-5.236-5.232C330.65,56.3,328.31,58.644,328.31,61.533z M330.741,61.214c0-1.955,1.586-3.541,3.542-3.541
		c1.955,0,3.542,1.586,3.542,3.541c0,1.957-1.587,3.542-3.542,3.542C332.327,64.756,330.741,63.171,330.741,61.214z"/>
	<path d="M165.073,363.553c0,0-10.294,7.03-22.327,17.877c-14.074,12.691-30.965,29.828-47.068,43.81
		c-25.913,22.483-62.745,55.539-56.084,64.723c4.295,5.932,16.792-0.088,27.294-10.751c10.492-10.66,10.516-14.164,10.516-14.164
		s-20.391,19.788-23.948,20.378c-3.562,0.592-3.086-6.912,4.354-15.366C65.247,461.604,160.733,367.669,165.073,363.553z"/>
	<path d="M174.549,367.12c0,0-9.984,7.467-21.537,18.823c-13.518,13.287-29.656,31.133-45.145,45.792
		c-24.916,23.581-60.292,58.187-53.245,67.07c4.545,5.745,16.773-0.808,26.806-11.913c10.026-11.103,9.898-14.603,9.898-14.603
		s-19.519,20.646-23.049,21.391c-3.534,0.741-3.381-6.771,3.688-15.539C79.034,469.378,170.387,371.422,174.549,367.12z"/>
	<path d="M195.175,385.072c0,0-6.939,10.354-17.681,22.479c-12.568,14.188-29.557,31.231-43.394,47.455
		c-22.258,26.105-54.987,63.223-64.229,56.646c-5.968-4.249-0.061-16.793,10.515-27.391c10.564-10.584,14.071-10.643,14.071-10.643
		s-19.614,20.562-20.173,24.129c-0.557,3.562,6.941,3.025,15.331-4.488C98.001,485.75,191.094,389.445,195.175,385.072z"/>
	<path d="M72.089,494.616l-3.004-2.036c9.672-10.248,20.805-20.953,30.396-30.029c15.483-14.659,31.625-32.507,45.14-45.796
		c11.554-11.354,21.536-18.819,21.536-18.819c-3.405,3.522-65.177,69.734-91.395,98.495L72.089,494.616z"/>
	<g>
		
			<ellipse transform="matrix(0.2586 -0.966 0.966 0.2586 51.4362 333.5363)" fill="#D76B3D" cx="242.993" cy="133.261" rx="4.402" ry="3.237"/>
		<path d="M242.268,130.295c-0.481,0.608-0.826,1.053-0.992,1.299c-2.058,3.044-0.67,6.342,0.848,6.153
			c1.52-0.193,4.054-4.567,4.054-4.567s1.185,0.865,0.604,1.826c-2.514,4.195-5.754,4.456-8.036,1.672
			c-1.183-1.445-2.305-3.393,1.172-7.878L242.268,130.295z"/>
	</g>
	<g>
		
			<ellipse transform="matrix(0.2588 -0.9659 0.9659 0.2588 60.7263 341.1967)" fill="#D76B3D" cx="252.686" cy="131.029" rx="4.4" ry="3.237"/>
		<path d="M251.939,128.052c-0.483,0.608-0.824,1.055-0.992,1.299c-2.057,3.044-0.672,6.344,0.848,6.153
			c1.518-0.192,4.055-4.567,4.055-4.567s1.178,0.865,0.604,1.826c-2.515,4.194-5.754,4.457-8.035,1.672
			c-1.187-1.445-2.31-3.392,1.172-7.878L251.939,128.052z"/>
	</g>
	<g>
		
			<ellipse transform="matrix(0.259 -0.9659 0.9659 0.259 61.5655 325.4583)" fill="#D76B3D" cx="242.888" cy="122.606" rx="4.401" ry="3.236"/>
		<path d="M242.127,119.641c-0.484,0.608-0.827,1.055-0.992,1.3c-2.058,3.044-0.671,6.343,0.844,6.152
			c1.521-0.192,4.059-4.567,4.059-4.567s1.181,0.865,0.604,1.826c-2.512,4.195-5.754,4.457-8.035,1.672
			c-1.186-1.445-2.309-3.392,1.172-7.878L242.127,119.641z"/>
	</g>
	<g>
		<path fill="#D76B3D" d="M248.471,121.797c-0.628,2.347,0.26,4.625,1.987,5.088c1.724,0.461,3.633-1.067,4.261-3.415
			c0.631-2.352-0.26-4.63-1.982-5.093C251.01,117.916,249.1,119.444,248.471,121.797z"/>
		<path d="M250.855,119.663c-0.486,0.608-0.828,1.056-0.992,1.301c-2.057,3.042-0.67,6.339,0.844,6.151
			c1.52-0.191,4.057-4.567,4.057-4.567s1.18,0.867,0.604,1.829c-2.515,4.189-5.751,4.454-8.034,1.671
			c-1.188-1.447-2.309-3.395,1.168-7.88L250.855,119.663z"/>
	</g>
	<g>
		<path fill="#D76B3D" d="M245.802,113.149c-0.628,2.351,0.265,4.628,1.987,5.09c1.727,0.462,3.636-1.066,4.266-3.417
			c0.629-2.349-0.26-4.627-1.986-5.088C248.344,109.271,246.432,110.8,245.802,113.149z"/>
		<path d="M248.188,111.02c-0.482,0.608-0.82,1.053-0.992,1.297c-2.057,3.043-0.668,6.343,0.849,6.151
			c1.521-0.191,4.056-4.566,4.056-4.566s1.18,0.866,0.604,1.831c-2.51,4.191-5.749,4.456-8.033,1.67
			c-1.186-1.445-2.307-3.393,1.171-7.877L248.188,111.02z"/>
	</g>
</g>
<g id="Layer_7">
	<path fill="#E0D7B3" stroke="#000000" stroke-width="5" d="M79.049,370.678c0,0-31.403,1.498-50.841-1.494l20.935,29.904
		l-29.906,29.906c0,0,52.335-7.479,70.28-4.486c17.943,2.992,7.476-55.324,7.476-55.324L79.049,370.678z"/>
	<path fill="#E0D7B3" stroke="#000000" stroke-width="5" d="M396.093,372.173c0,0,26.875,7.478,46.314,4.487L426,400.585
		l14.909,34.392c0,0-37.338-11.964-55.283-8.972c-17.941,2.99-7.477-55.323-7.477-55.323L396.093,372.173z"/>
	<path fill="#E0D7B3" stroke="#000000" stroke-width="6" d="M381.558,349.749H96.262c-12.223,0-17.212,6.065-17.212,20.931
		l1.229,26.914c0,14.864,0.072,16.448,12.296,16.448c0,0,15.26-1.041,35.863-2.375l2.945-8.838l3.976,8.392
		c26.326-1.688,58.967-3.687,80.188-4.651c98.378-4.486,166.012,10.466,166.012,10.466c12.228,0,15.985-3.079,15.985-17.943v-28.408
		C397.545,355.814,393.78,349.749,381.558,349.749z"/>
	<path fill="#E0D7B3" stroke="#000000" stroke-width="2" d="M390.73,417.731c0,0-14.495,6.035-8.328,7.157"/>
	<path fill="#E0D7B3" stroke="#000000" stroke-width="3" d="M82.97,413.674c0,0,18.13,9.354-0.936,10.475"/>
</g>
<g id="dogwood">
	<g>
		<g>
			
				<linearGradient id="SVGID_6_" gradientUnits="userSpaceOnUse" x1="203.0327" y1="29.3213" x2="248.5068" y2="29.3213" gradientTransform="matrix(1 0 0 -1 -126 317.9727)">
				<stop  offset="0" style="stop-color:#F7E1D8"/>
				<stop  offset="0.2335" style="stop-color:#F5DDD5"/>
				<stop  offset="0.4834" style="stop-color:#F0D0CD"/>
				<stop  offset="0.741" style="stop-color:#E7BABE"/>
				<stop  offset="1" style="stop-color:#DB9DAB"/>
			</linearGradient>
			<path fill="url(#SVGID_6_)" stroke="#000000" stroke-width="4" d="M84.836,270.803l4.656,1.959l1.278-6.066l2.957-1.378
				c0,0,23.718-3.71,27.895,18.918c5.421,29.392-14.94,35.035-36.961,19.691c-15.568-10.853-2.486-31.484-2.486-31.484
				L84.836,270.803z"/>
			<path stroke="#000000" stroke-width="0.5" d="M81.513,277.229c0,0-4.19,28.742,20.383,34.168
				C101.896,311.396,63.322,300.207,81.513,277.229z"/>
		</g>
		<g>
			
				<linearGradient id="SVGID_7_" gradientUnits="userSpaceOnUse" x1="186.2642" y1="-11.8652" x2="235.7417" y2="-11.8652" gradientTransform="matrix(1 0 0 -1 -126 317.9727)">
				<stop  offset="0" style="stop-color:#F7E1D8"/>
				<stop  offset="0.2335" style="stop-color:#F5DDD5"/>
				<stop  offset="0.4834" style="stop-color:#F0D0CD"/>
				<stop  offset="0.741" style="stop-color:#E7BABE"/>
				<stop  offset="1" style="stop-color:#DB9DAB"/>
			</linearGradient>
			<path fill="url(#SVGID_7_)" stroke="#000000" stroke-width="5" d="M62.737,338.337l3.299-3.823l-5.371-3.089l-0.401-3.237
				c0,0,3.803-23.703,26.615-20.682c29.627,3.924,28.706,25.033,7.303,41.232c-15.127,11.457-30.71-7.366-30.71-7.366
				L62.737,338.337z"/>
			<path d="M67.821,343.482c0,0,24.314,11.927,37.066-9.771C104.887,333.712,84.052,367.884,67.821,343.482z"/>
		</g>
		<g>
			
				<linearGradient id="SVGID_8_" gradientUnits="userSpaceOnUse" x1="248.9717" y1="-12.2856" x2="298.6699" y2="-12.2856" gradientTransform="matrix(1 0 0 -1 -126 317.9727)">
				<stop  offset="0" style="stop-color:#F7E1D8"/>
				<stop  offset="0.2335" style="stop-color:#F5DDD5"/>
				<stop  offset="0.4834" style="stop-color:#F0D0CD"/>
				<stop  offset="0.741" style="stop-color:#E7BABE"/>
				<stop  offset="1" style="stop-color:#DB9DAB"/>
			</linearGradient>
			<path fill="url(#SVGID_8_)" stroke="#000000" stroke-width="5" d="M171.483,334.951l-4.917,1.156l2.532,5.651l-1.582,2.854
				c0,0-17.01,16.939-33.688,1.089c-21.663-20.589-8.505-37.125,18.329-37.656c18.969-0.371,20.513,24.017,20.513,24.017
				L171.483,334.951z"/>
			<path stroke="#000000" stroke-width="0.5" d="M172.896,328.896c0,0-15.162-25.039-38.234-14.979
				C134.663,313.917,174.108,299.617,172.896,328.896z"/>
		</g>
		<g>
			
				<linearGradient id="SVGID_9_" gradientUnits="userSpaceOnUse" x1="245.5576" y1="23.1528" x2="290.3672" y2="23.1528" gradientTransform="matrix(1 0 0 -1 -126 317.9727)">
				<stop  offset="0" style="stop-color:#F7E1D8"/>
				<stop  offset="0.2335" style="stop-color:#F5DDD5"/>
				<stop  offset="0.4834" style="stop-color:#F0D0CD"/>
				<stop  offset="0.741" style="stop-color:#E7BABE"/>
				<stop  offset="1" style="stop-color:#DB9DAB"/>
			</linearGradient>
			<path fill="url(#SVGID_9_)" stroke="#000000" stroke-width="4" d="M153.494,274.212l-0.419,5.033l6.157-0.659l2.226,2.382
				c0,0,10.857,21.414-9.373,32.378c-26.273,14.237-37.937-3.383-30.148-29.068c5.507-18.152,29.176-12.088,29.176-12.088
				L153.494,274.212z"/>
			<path stroke="#000000" stroke-width="0.5" d="M146.357,273.037c0,0-27.899,5.307-25.461,30.359
				C120.896,303.396,118.881,262.837,146.357,273.037z"/>
		</g>
		<g>
			
				<linearGradient id="SVGID_10_" gradientUnits="userSpaceOnUse" x1="220.7324" y1="-32.9785" x2="265.915" y2="-32.9785" gradientTransform="matrix(1 0 0 -1 -126 317.9727)">
				<stop  offset="0" style="stop-color:#F7E1D8"/>
				<stop  offset="0.2335" style="stop-color:#F5DDD5"/>
				<stop  offset="0.4834" style="stop-color:#F0D0CD"/>
				<stop  offset="0.741" style="stop-color:#E7BABE"/>
				<stop  offset="1" style="stop-color:#DB9DAB"/>
			</linearGradient>
			<path fill="url(#SVGID_10_)" stroke="#000000" stroke-width="4" d="M119.226,375.592l-2.621-4.318l-4.595,4.152l-3.203-0.621
				c0,0-21.37-10.938-11.445-31.701c12.886-26.965,32.681-19.562,41.475,5.795c6.219,17.932-16.496,26.932-16.496,26.932
				L119.226,375.592z"/>
			<path stroke="#000000" stroke-width="0.5" d="M125.689,372.348c0,0,19.904-20.619,3.208-39.451
				C128.896,332.896,153.912,364.45,125.689,372.348z"/>
		</g>
		
			<linearGradient id="SVGID_11_" gradientUnits="userSpaceOnUse" x1="233.6841" y1="-1.0649" x2="252.834" y2="-1.0649" gradientTransform="matrix(1 0 0 -1 -126 317.9727)">
			<stop  offset="0" style="stop-color:#F1BD08"/>
			<stop  offset="0.3267" style="stop-color:#F1C00C"/>
			<stop  offset="0.6758" style="stop-color:#F1CA19"/>
			<stop  offset="1" style="stop-color:#F1D92C"/>
		</linearGradient>
		<path fill="url(#SVGID_11_)" stroke="#000000" stroke-width="3" d="M107.684,319.037c0,5.292,4.286,9.574,9.577,9.574
			c5.287,0,9.573-4.282,9.573-9.574c0-5.285-4.287-9.573-9.573-9.573C111.97,309.463,107.684,313.751,107.684,319.037z"/>
	</g>
</g>
<g id="Layer_8">
	<g>
		<path d="M190.956,369.311v19.016h2.269c1.512,0,2.591,0.292,3.235,0.874c0.644,0.583,0.966,1.344,0.966,2.282
			c0,0.92-0.322,1.672-0.966,2.254s-1.723,0.875-3.235,0.875h-8.249c-1.514,0-2.591-0.293-3.235-0.875
			c-0.645-0.582-0.967-1.346-0.967-2.281c0-0.898,0.317-1.646,0.95-2.239c0.633-0.595,1.615-0.89,2.945-0.89V363.73h-0.981
			c-1.514,0-2.591-0.291-3.236-0.875c-0.644-0.582-0.966-1.344-0.966-2.285c0-0.938,0.322-1.7,0.966-2.282
			c0.645-0.584,1.722-0.875,3.236-0.875l7.268,0.03l16.068,25.207v-18.92h-2.269c-1.514,0-2.591-0.291-3.235-0.875
			c-0.645-0.582-0.966-1.346-0.966-2.285c0-0.938,0.321-1.7,0.966-2.282c0.644-0.584,1.721-0.875,3.235-0.875l8.249,0.03
			c1.513,0,2.592,0.287,3.236,0.857c0.643,0.571,0.965,1.329,0.965,2.27c0,0.922-0.318,1.678-0.95,2.271
			c-0.635,0.595-1.606,0.89-2.914,0.89v30.883h-6.226L190.956,369.311z"/>
		<path d="M306.484,359.04c0.389-0.534,0.812-0.931,1.271-1.196c0.459-0.267,0.954-0.398,1.487-0.398
			c0.921,0,1.672,0.316,2.252,0.951c0.585,0.631,0.876,1.705,0.876,3.221v5.337c0,1.514-0.291,2.591-0.876,3.231
			c-0.58,0.646-1.331,0.967-2.252,0.967c-0.839,0-1.516-0.232-2.023-0.703c-0.514-0.473-0.891-1.354-1.135-2.639
			c-0.146-0.856-0.432-1.521-0.857-1.994c-0.842-0.92-2.011-1.652-3.515-2.209c-1.502-0.551-3.009-0.824-4.521-0.824
			c-1.883,0-3.608,0.406-5.186,1.227c-1.572,0.816-2.964,2.146-4.17,3.986c-1.207,1.84-1.811,4.025-1.811,6.562v4.077
			c0,3.024,1.1,5.554,3.297,7.575c2.195,2.021,5.246,3.036,9.152,3.036c2.33,0,4.303-0.317,5.918-0.95
			c0.938-0.368,1.94-1.094,3.007-2.179c0.65-0.655,1.166-1.078,1.53-1.271c0.37-0.193,0.786-0.291,1.261-0.291
			c0.836,0,1.57,0.315,2.208,0.948c0.633,0.636,0.947,1.382,0.947,2.238c0,0.858-0.429,1.776-1.285,2.762
			c-1.247,1.431-2.854,2.556-4.814,3.373c-2.639,1.104-5.551,1.653-8.739,1.653c-3.723,0-7.071-0.768-10.058-2.301
			c-2.413-1.228-4.469-3.162-6.165-5.812c-1.695-2.646-2.544-5.53-2.544-8.661v-4.263c0-3.271,0.761-6.321,2.283-9.153
			c1.521-2.834,3.633-5.016,6.332-6.548c2.699-1.53,5.561-2.3,8.586-2.3c1.817,0,3.521,0.21,5.104,0.628
			C303.637,357.54,305.113,358.18,306.484,359.04z"/>
	</g>
	<polygon points="247.268,358.512 252.58,369.281 264.463,371.008 255.863,379.391 257.895,391.225 247.268,385.639 
		236.636,391.225 238.667,379.391 230.068,371.008 241.951,369.281 	"/>
</g>
</svg>
