<?xml version="1.0" encoding="utf-8"?>
<!-- Generator: Adobe Illustrator 14.0.0, SVG Export Plug-In . SVG Version: 6.00 Build 43363)  -->
<!DOCTYPE svg PUBLIC "-//W3C//DTD SVG 1.1//EN" "http://www.w3.org/Graphics/SVG/1.1/DTD/svg11.dtd">
<svg version="1.1" id="Layer_1" xmlns="http://www.w3.org/2000/svg" xmlns:xlink="http://www.w3.org/1999/xlink" x="0px" y="0px"
	 width="887.378px" height="914.877px" viewBox="0 0 887.378 914.877" enable-background="new 0 0 887.378 914.877"
	 xml:space="preserve">
<g id="Layer_1_1_" display="none">
	<g id="lNujs5_1_" display="inline">
		
			<image overflow="visible" enable-background="new    " width="816" height="1042" id="lNujs5_2_" xlink:href="1062E665.png"  transform="matrix(1 0 0 1 -328.21 -167.0137)">
		</image>
	</g>
</g>
<g id="Layer_5" display="none">
	<g display="inline">
		<path fill="#FFFFFF" stroke="#231F20" stroke-width="3" d="M106.364,244.896c0,0-13.23-12.371-6.316,11.878
			c6.92,24.25,11.525,50.698,18.93,55.395c7.408,4.701,29.196,5.996,30.229-5.266C150.238,295.645,106.364,244.896,106.364,244.896z
			"/>
		<path fill="#FFFFFF" stroke="#000000" stroke-width="4" d="M131.598,149.802c-12.352,27.336-32.661,41.322-16.449,108.917
			c0,0,12.471,46.164,21.633,62.975c8.757,16.068,12.95,16.488,43.091,37.377c40.989,28.408,82.915,42.604,102.555,30.199
			c19.636-12.41,34.229,0.252,40.076-25.252c11.318-49.352,9.746-70.947,10.269-71.771c12.317-19.483,9.428-73.24,2.165-81.868
			c-7.271-8.63-11.69-73.782-44.626-96.783C265.985,96.604,166.509,72.534,131.598,149.802z"/>
		<path fill="none" stroke="#231F20" stroke-width="2" d="M278.956,232.608c0,0,13.553-30.278,42.172-16.088
			c0,0-6.52,12.042-17.39,14.626C292.864,233.731,284.536,228.717,278.956,232.608z"/>
		<path fill="#231F20" stroke="#231F20" d="M287.827,221.874c0,0-1.01,9.077,5.992,9.982c7.002,0.909,16.428-8.266,7.961-16.948
			C301.78,214.909,298.989,210.421,287.827,221.874z"/>
		<path fill="#231F20" stroke="#231F20" d="M281.925,217.207c0,0,25.295-19.302,39.928-7.857l0.105,0.845
			C321.958,210.195,308.366,199.353,281.925,217.207z"/>
		<g>
			<path fill="none" stroke="#231F20" d="M232.107,240.811c0,0-8.376-1.229-15.774-4.988c-7.402-3.76-25.154-1.394-35.576,10.305
				c0,0,8.337,5.794,12.347,5.928c4.007,0.133,6.951,2.238,16.1-1.471C218.362,246.876,232.107,240.811,232.107,240.811z"/>
			<path fill="#231F20" stroke="#231F20" d="M190.667,239.35c0,0-0.438,12.999,8.096,13.338
				c13.513,0.538,14.132-13.033,9.287-18.209C208.05,234.479,200.456,233.001,190.667,239.35z"/>
			<path fill="#231F20" stroke="#231F20" d="M217.96,228.801c0,0-17.323-7.102-40.526,11.694l0.093,1.518
				C177.527,242.013,199.784,223.872,217.96,228.801z"/>
		</g>
		
			<ellipse transform="matrix(0.1865 -0.9825 0.9825 0.1865 -77.6073 500.1311)" stroke="#231F20" stroke-width="2" cx="263.202" cy="296.929" rx="5.041" ry="11.858"/>
		<g>
			<path stroke="#231F20" stroke-width="2" d="M282.124,343.32c-7.034,1.061-14.542,3.047-24.375,2.006c0,0-7.1,2.725-10.682,4.873
				c-2.834,1.701-4.492-4.686,13.15-15.535c8.982-5.521,13.641-5.66,13.641-5.66l10.921,0.24l8.546-7.434
				c0,0,15.229,2.508,17.567,5.432C310.894,327.242,306.399,339.66,282.124,343.32z"/>
			<path fill="#FFFFFF" stroke="#231F20" stroke-width="2" d="M248.218,349.693c0,0,5.295-0.613,9.824,2.977
				c8.256,6.543,26.086,4.123,34.51-0.969c0,0,5.032,0.176,12.356-4.521c7.323-4.695,6.04-11.037,5.443-18.654
				c0,0-17.018,2.836-21.996,12.572c0,0-2.908-3.729-18.141,1.826C264.308,345.08,258.275,343.402,248.218,349.693z"/>
		</g>
		<g>
			<path stroke="#231F20" stroke-width="3" d="M294.22,273.258c0,0,15.645,15.619,1.418,20.145c0,0-7.062,1.887-10.82,4.709
				c2.633-1.977-7.038,13.223-14.793,2.896c-2.957-3.939-11.577-4.992-15.754-1.857c-4.171,3.133-13.842-1.92-11.221-7.99
				c2.619-6.075,5.086-14.087,13.112-11.22c0,0-2.033-1.144-4.726,2.702c-2.692,3.848-5.993,7.556-5.53,9.197
				c0.464,1.643,3.083,6.939,7.88,5.266c4.797-1.676,13.193-1.129,17.081,2.947c3.887,4.08,5.104,3.361,6.963,3.074
				c1.858-0.287,3.568-2.047,4.344-3.219c0.776-1.17,3.007-4.672,9.761-6.643C298.688,291.295,306.902,289.448,294.22,273.258z"/>
			<path fill="#FFFFFF" d="M294.353,273.096c12.683,16.189,4.468,18.037-2.287,20.006c-6.752,1.973-8.982,5.475-9.758,6.646
				c-0.776,1.168-2.486,2.93-4.345,3.217c-1.859,0.287-3.076,1.004-6.964-3.072c-3.887-4.08-12.283-4.625-17.08-2.951
				c-4.797,1.676-7.416-3.621-7.881-5.264c-0.463-1.643,2.838-5.351,5.531-9.197c2.692-3.846,4.727-2.701,4.727-2.701
				L294.353,273.096z"/>
			<path fill="#231F20" d="M267.319,217.484c0,0-17.867,11.64-10.201,21.847c7.663,10.206,14.621,18.286,20.012,23.105
				c5.392,4.819,18.729,7.22,14.895,2.115c-3.83-5.101-15.613-14.878-17.462-26.792
				C272.709,225.848,278.802,211.518,267.319,217.484z"/>
		</g>
		<path fill="#231F20" stroke="#231F20" d="M271.058,207.119c0,0-1.314-7.557,6.344-12.884c7.654-5.326,11.616-3.222,11.616-3.222
			l-0.903-4.033l21.74-6.982c0,0,9.112-4.296,11.143,4.371c2.09,8.927-20.315,1.417-33.16,13.638
			c-12.845,12.217-11.738,8.234-11.738,8.234L271.058,207.119z"/>
		<path fill="#231F20" stroke="#231F20" d="M169.291,228.595l24.646-11.085c0,0,31.81-3.766,36.772-0.292
			c4.965,3.477,9.73-8.393,9.73-8.393s-40.913-2.991-47.441-2.709c-6.687,0.287-13.946,9.25-24.954,18.408"/>
		<path fill="#231F20" stroke="#231F20" d="M42.805-12.597c0,0-31.708-4.322-13.758,16.599c0,0-20.358,1.749-13.761,8.685
			c0,0-17.339,16.496-10.739,23.432c0.278,0.295,0.525,0.552,0.735,0.774c4.762,5.005-7.335-7.711-7.335-7.711
			s3.532,10.594,12.723,4.053c0,0,1.372,5.302-0.24,9.774c-1.617,4.476,4.19,12.896-2.213,13.114
			C1.815,56.338-9.17,59.45-6.33,66.289c2.839,6.845-5.193-3.137-9.099,2.786c-3.908,5.92-6.503,19.399-2.799,21.749
			c3.704,2.351,11.256,1.034,9.539-5.409c-1.72-6.434-2.359-10.965,2.425-6.708c4.783,4.257,10.548-0.488,12.455-1.573
			c1.907-1.081,3.609,6.111-3.406,15.717c-7.01,9.605-8.477,8.064-7.873,14.102c0.596,6.03-5.615-1.271-0.726,13.897
			c4.89,15.168,0.885,24.852,8.66,29.938c7.772,5.082-0.075,3.008-4.184,1.776c-4.108-1.23-7.107,13.365,1.204,12.067
			c8.31-1.298,7.286-5.463,9.305-11.055c2.021-5.587,10.893,0.652,8.543,4.352c-2.349,3.707-3.134,19.862,1.213,26.741
			c4.343,6.882,2.611,15.867-1.899,15.751c-4.51-0.109-11.598,12.501-2.924,11.592c8.677-0.912,18.966-6.3,19.916,0.873
			c0.949,7.174,5.82,23.095,9.653,20.177c3.836-2.909-4.248-10.639-1.166-13.57c3.083-2.934-6.334-17.465,5.051-6.268
			c10.83,10.651,0.092,11.907,10.895,17.163c0.551,0.267,1.155,0.544,1.82,0.835c13.769,5.988-1.27-0.568-1.27-0.568
			s-2.215,4.618,3.299,9.646c0,0-11.151,9.879-0.687,12.396c10.474,2.52,15.313,4.524,15.077-1.126
			c-0.232-5.648,13.551-0.415,12.934-5.7c-0.62-5.279-2.762-9.845,5.3-1.37c8.063,8.476,15.726,18.074,11.488,22.105
			c-4.24,4.034-16.119,27.812,2.367,25.644c18.485-2.175-0.104-10.914,2.357-19.128c0,0,10.041-10.281,8.415-20.48
			c-1.627-10.202,3.881-19.841,6.793-16.008c2.915,3.835,2.013,9.833-0.574,7.888c-2.581-1.949-0.167,6.766,5.19,3.139
			c5.356-3.631,8.627-14.08,4.228-18.705c-4.397-4.622-0.206-21.821,2.726-18.741c2.933,3.084,16.723,8.318,18.066-0.298
			c1.341-8.624,2.01-20.268,4.669-21.33c2.657-1.06,10.854,2.153,12.491-3.071c1.636-5.228,11.261,1.031,16.394,6.428
			c5.131,5.393-0.633,10.141,1.106,15.829c1.739,5.683-16.568,15.761-9.455,17.064c7.116,1.31,26.254-11.755,24.975-20.818
			c0,0,5.005-4.762,2.459-8.215c0,0,10.041-10.278,1.052-12.008c-8.984-1.727-3.317-2.718,0.538-6.384
			c3.854-3.666,13.856-12.442,9.603-23.082c-4.244-10.64,48.853-52.943,51.766-49.109c2.919,3.834-2.407,5.96,3.882,10.255
			c6.292,4.293,8.858,6.99,15.735,2.647c0,0,9.877,11.156,13.749,6.74c3.872-4.418,11.482-7.988,14.784-4.52
			c3.299,3.466-6.419,0.966-2.771,5.571c3.646,4.605,13.096,2.959,9.85-2.763c-3.243-5.725-4.557-13.28-13.174-14.625
			c0,0,1.474-13.882-4.893-15.165c-6.36-1.291-16.487-2.672-19.248-12.521c-2.762-9.851,3.119-4.436,6.418-0.966
			c3.301,3.468,7.737,6.584,8.912,4.732c1.176-1.852-2.559-18.121-9.363-16.785c0,0-4.867-15.923-13.637-11.248
			c-8.769,4.669,5.547-11.15-9.361-16.788c0,0-0.301-18.063-12.736-17.249c0,0-6.12-11.059-12.227-7.448
			c0,0,1.016-10.512,3.657-10.822c2.642-0.311,13.42,4.851,9.239,6.625c0,0,10.715-7.255-10.577-13.429
			c-21.288-6.175-22.745-23.136-40.097-21.315c-17.346,1.823-21.453,0.591-27.318-5.573c-5.867-6.168-19.308-10.264-26.244-3.666
			c0,0-7.547-14.109-12.435,0.821c0,0-47.85-18.521-57.109-17.599C28.617-44.1,55.87-25.037,42.805-12.597z"/>
		<path fill="#231F20" stroke="#231F20" d="M198.39,174.107c10.412-60.686,74.123-52.808,77.785-48.014
			c3.658,4.791-2.908,7.361,4.938,12.77c7.846,5.403,11.062,8.784,19.532,3.482c0,0,12.385,13.963,17.131,8.53
			c4.741-5.431,14.135-9.77,18.266-5.428c4.131,4.345-7.941,1.126-3.367,6.884c4.58,5.759,16.268,3.833,12.181-3.308
			c-4.094-7.142-5.818-16.534-16.519-18.309c0,0,1.657-17.207-6.249-18.88c-7.9-1.676-20.464-3.516-24.013-15.77
			c-3.547-12.256,3.812-5.465,7.941-1.122c4.134,4.344,9.676,8.268,11.106,5.984c1.438-2.283-3.39-22.515-11.811-20.944
			c0,0-6.228-19.813-17.043-14.126"/>
		<circle fill="#FFFFFF" cx="197.851" cy="241.656" r="1.976"/>
		<circle fill="#FFFFFF" cx="292.467" cy="222.598" r="1.976"/>
		<path fill="#231F20" d="M261.624,334.555c0,0-6.404,9.385,1.031,8.236c5.077-0.781,19.535-2.264,24.083-8.381
			c0,0,8.663,1.213,13.065-4.395c2.729-3.477,2.208-6.678,2.208-6.678s6.038,1.775,6.865,2.586c0.826,0.811,3.082,2.059,1.476,2.602
			c-1.606,0.539-13.115,3.139-15.915,6.4c-2.801,3.262-6.081,6.172-6.081,6.172s-1.948-1.59-4.455-1.338
			c-2.508,0.254-2.035,0.504-4.396,0.742c-2.359,0.236-9.703,2.762-10.735,2.865c-1.032,0.105-8.688,1.025-10.56,1.66
			c-1.872,0.635-8.007,3.338-8.862,3.721c-0.854,0.385-2.771,2.068-3.404,1.686C245.31,350.049,245.811,344.686,261.624,334.555z"/>
		<path fill="#231F20" d="M258.128,337.289c-0.295,3.977,2.783-1.695,7.428-4.398c3.411-1.982,6.177-2.531,6.176-2.531l13.048-1.115
			l8.546-7.434l-8.891,6.475l-11.16,0.627l-6.822,2.275l-2.939,1.389l-2.703,1.762l-2.879,1.979L258.128,337.289z"/>
		<path fill="#231F20" d="M307.405,330.541c0,0-5.844,12.01-12.715,14.787c-6.871,2.775-3.01,4.531,0.16,3.559
			c2.89-0.887,10.302-3.221,12.393-9.092C309.334,333.922,309.146,330.068,307.405,330.541z"/>
		<path stroke="#231F20" stroke-width="2" d="M273.567,315.451l1.881,8.316c0,0,3.298,0.674,5.568-0.01
			c2.271-0.682-2.314-1.523-3.889-8.822L273.567,315.451z"/>
		<path fill="#231F20" d="M229.974,240.607c0,0-4.513,1.051-11.078-2.013c-6.564-3.064-11.517-2.732-16.299-2.084
			c-8.524,1.156-17.983,8.315-19.177,9.776s-2.662-0.159-2.662-0.159s8.551-8.429,13.079-9.332c4.528-0.903,14.245-3.52,16.09-2.96
			c1.843,0.56,4.735,1.162,7.376,2.237C219.944,237.147,227.629,240.992,229.974,240.607z"/>
		<path fill="#231F20" d="M237.894,248.749c0,0,1.705-8.713,0.229-11.543c-1.477-2.831-7.129-17.557-4.002-16.084
			s16.711,23.942,18.073,31.551C253.556,260.283,245.028,242.667,237.894,248.749z"/>
		<path fill="#020202" d="M126.394,222.429c0,0,7.344,43.358,22.626,47.182c15.283,3.825,24.551,13.023,29.163,29.244
			c4.612,16.221,12.189,55.979,31.724,66.527c19.534,10.547,45.724,31.945,70.792,24.457c0,0-7.745,5.941-24.697,3.279
			c-16.954-2.662-44.983-12.754-62.513-25.092c-17.53-12.338-48.2-30.902-51.193-36.957c-2.993-6.057-11.299-19.52-13.468-27.248
			c-2.169-7.727-13.678-45.104-13.678-45.104L126.394,222.429z"/>
		<path fill="#231F20" d="M180.954,245.955c0,0-5.12,1.973-7.101-4.669c0,0,4.616,4.126,9.575,1.623L180.954,245.955z"/>
		<path fill="#231F20" d="M183.508,243.712c0,0-5.119,1.972-7.1-4.669c0,0,4.615,4.127,9.575,1.623L183.508,243.712z"/>
		<path fill="#231F20" d="M186.352,243.144c0,0-6.539,0.031-6.427-9.061c0,0,3.788,7.232,10.332,6.471L186.352,243.144z"/>
		<path fill="#231F20" d="M321.354,217.125c0,0,5.411,0.913,6.028-5.99c0,0-3.701,4.965-9.059,3.498L321.354,217.125z"/>
		<path fill="#231F20" d="M318.403,215.436c0,0,5.41,0.913,6.026-5.99c0,0-3.699,4.964-9.06,3.498L318.403,215.436z"/>
		<path fill="#231F20" d="M315.503,215.446c0,0,6.414-1.272,4.493-10.159c0,0-2.271,7.841-8.837,8.4L315.503,215.446z"/>
	</g>
	<path display="inline" fill="#FFFFFF" stroke="#231F20" stroke-width="5" d="M106.958,253.819c0,0,5.333-102,22-132.667
		s-18-32.667-18-32.667s-94.334,38.333-95.668,45s4.334,32.333,7.001,37s4.667-1.333,7.333-3.333c0,0-13.333,5.333,0,20.667
		s10,26,24.667,27.333S94.958,267.818,106.958,253.819z"/>
	<path display="inline" fill="#231F20" d="M87.625,176.485c-4.204,8.653-9.999-2-25.333,28c0,0,0.666-17.333,15.333-32
		C84.891,165.219,91.752,167.989,87.625,176.485z"/>
	<path display="inline" fill="#231F20" d="M28.624,164.653c11.119-6.354,43.669-24.835,43.669-24.835s-42.667,28.667-46,40.667
		S23.956,167.321,28.624,164.653z"/>
	<path display="inline" fill="#231F20" d="M69.79,224.486c0,0,11.5-18,16-32.5s8-16,11-17c0,0-6.5,13.5-9,25.5s-10,28.5-11.5,31.5
		S69.79,224.486,69.79,224.486z"/>
	<path display="inline" fill="#231F20" d="M97.79,261.986"/>
	<g display="inline">
		<path fill="#FFFFFF" stroke="#231F20" stroke-width="5" d="M46.16,168.752c0,0,25.956-16.741,45.413-18.022
			c19.457-1.281,77.058-39.647,59.411-56.523s-42.794-10.711-62.27,13.12c-19.475,23.83-32.051,40.092-42.742,60.337"/>
		<path fill="#FFFFFF" stroke="#231F20" stroke-width="5" d="M254.203,12.145c0,0-78.907,19.227-95.148,31.32
			c-16.24,12.093-40.305,34.724-15.372,48.114c24.933,13.39,61.144-15.05,80.659-45.899
			C243.857,14.831,249.779,13.438,254.203,12.145z"/>
		<path fill="#231F20" d="M87.633,133.045c0,0,23.568-50.137,45.131-40.824c21.563,9.312,3.253,18.141,3.178,23.335
			c0,0,1.504-14.265-3.709-13.042C127.021,103.738,86.391,129.13,87.633,133.045z"/>
		<path fill="#FFFFFF" stroke="#231F20" stroke-width="5" d="M131.112,90.903c0,0,2.841-17.725,17.573-14.686
			c14.732,3.039,18.559,0.281,18.953,6.268c0.395,5.987-1.272,11.107-14.311,10.964c0,0,0.717,18.493-6.728,11.968
			C139.154,98.893,130.437,103.475,131.112,90.903z"/>
		<path fill="#FFFFFF" stroke="#231F20" stroke-width="5" d="M142.412,87.488c0,0,9.024,0.073,10.915,5.961"/>
	</g>
	<path display="inline" fill="#231F20" stroke="#231F20" d="M206.735,128.958c0,0-9.631-12.326-9.843-1.048
		c0,0-43.306-21.387-50.558-21.919c-45.428-3.334-18.631,15.66-26.077,23.824c0,0-26.708-7.81-6.964,11.396
		c0,0-16.015-1.394-8.947,5.063c0,0-13.127,12.63-6.057,19.087c0.299,0.274-3.859-0.777-4.125-0.625
		c-4.375,2.5,8.125,5.125,8.125,5.125s8.375-1.625,3.469-7.775c0,0,2.436,4.431,2.252,7.789c-0.186,3.361,6.614,10.896,1.494,10.192
		c-5.12-0.706-13.219,0.277-9.211,6.141c4.007,5.867-4.982-3.224-6.657,0.981c-1.676,4.202-0.4,14.632,3.182,17.021
		c3.582,2.389,9.355,2.372,6.355-3.02c-3-5.386-4.651-9.1,0.28-5.036c4.931,4.064,8.403,1.057,9.672,0.449
		c1.272-0.602,4.446,5.386,1.181,12.111c-3.261,6.726-4.832,5.292-2.832,10.206c1.989,4.908-4.857-1.788,2.892,11.022"/>
</g>
<g id="Layer_8" display="none">
	<path display="inline" fill="#FFFFFF" stroke="#231F20" stroke-width="5" d="M158.382,271.576c0,0,46.498,104.996,43.498,113.994
		c-3,9-17.999,16.5-25.499,4.5c-7.5-12-70.497-148.493-70.497-148.493l55.497-9l-7.5,23.999L158.382,271.576z"/>
	<path display="inline" fill="#FFFFFF" stroke="#231F20" stroke-width="5" d="M-18.111,370.584c0,0,46.989-0.969,54.4,7.402
		c7.411,8.371,9.38,19.008,13.25,33.5c0,0-12.062-16.943-16.25-21c-4.188-4.057-16.861,16.417-7.71,27.428
		c2.476,2.979,21.951,34.305,17.876,33.904c-10.989-1.078-59.234-41.49-59.234-41.49L-18.111,370.584z"/>
	<path display="inline" fill="#231F20" d="M129.625,288.819c0,0,15,5,29-9l1.333-3c0,0,41.667,96.333,41.667,101.333
		s-0.667,13.668-9.333,15.334s-13.333,7.667-30-32C145.625,321.819,129.625,288.819,129.625,288.819z"/>
	<path display="inline" fill="#FFFFFF" d="M196.772,378.502c0.484,1.194-0.092,2.556-1.286,3.039l0,0
		c-1.194,0.484-2.555-0.092-3.04-1.286l-35.305-87.116c-0.484-1.194,0.092-2.556,1.286-3.039l0,0
		c1.194-0.484,2.555,0.092,3.04,1.286L196.772,378.502z"/>
</g>
<g id="Layer_6" display="none">
	<path display="inline" fill="#FFFFFF" stroke="#231F20" stroke-width="4" d="M-216.544,356.818c0,0,11.667-29.666,98.101-26.293
		c91.199,3.559,91.233,35.479,91.233,35.479L-216.544,356.818"/>
	<path display="inline" fill="#231F20" d="M-204.21,354.486c0,0,2-19,74-17s72,28,72,28L-204.21,354.486"/>
</g>
<g id="head" display="none">
	<path display="inline" fill="#FFFFFF" stroke="#231F20" stroke-width="5" d="M-183.875,290.545c0,0,16.664,47.941,12.664,103.941
		c-4,56,172,42,172,42s32.911,14.918,32.832,10.5c-0.12-6.654-30.5-17.834-33.489-47.511c-3.359-33.354-1.343-79.125-1.343-88.99
		C-1.21,294.486-160.54,292.605-183.875,290.545z"/>
	<g display="inline">
		<path fill="#FFFFFF" stroke="#231F20" stroke-width="3" d="M-230.397,199.157c0,0-14.185-13.263-6.772,12.735
			c7.419,25.999,12.356,54.354,20.295,59.389c7.943,5.041,31.302,6.43,32.409-5.645
			C-183.36,253.565-230.397,199.157-230.397,199.157z"/>
		<path fill="#FFFFFF" stroke="#000000" stroke-width="4" d="M-203.344,97.205c-13.242,29.308-35.017,44.302-17.635,116.771
			c0,0,13.371,49.493,23.193,67.516c9.388,17.227,13.884,17.678,46.199,40.072c43.944,30.457,88.894,45.676,109.951,32.377
			c21.052-13.305,36.697,0.271,42.967-27.072c12.134-52.91,10.448-76.064,11.008-76.948c13.206-20.889,10.107-78.522,2.322-87.772
			C6.866,152.896,2.126,83.046-33.184,58.386C-59.264,40.17-165.915,14.364-203.344,97.205z"/>
		<path fill="none" stroke="#231F20" stroke-width="2" d="M-45.359,185.982c0,0,14.53-32.462,45.214-17.248
			c0,0-6.99,12.911-18.644,15.681C-30.447,187.186-39.375,181.811-45.359,185.982z"/>
		<path fill="#231F20" stroke="#231F20" d="M-35.847,174.474c0,0-1.083,9.731,6.424,10.702c7.507,0.975,17.612-8.862,8.535-18.17
			C-20.888,167.006-23.88,162.195-35.847,174.474z"/>
		<path fill="#231F20" stroke="#231F20" d="M-42.175,169.47c0,0,27.119-20.694,42.807-8.423l0.113,0.906
			C0.745,161.953-13.828,150.329-42.175,169.47z"/>
		<g>
			<path fill="none" stroke="#231F20" stroke-width="2" d="M-95.585,194.776c0,0-8.98-1.317-16.912-5.348
				c-7.937-4.031-26.968-1.495-38.142,11.048c0,0,8.939,6.212,13.238,6.355c4.296,0.143,7.452,2.399,17.261-1.577
				C-110.322,201.28-95.585,194.776-95.585,194.776z"/>
			<path fill="#231F20" stroke="#231F20" d="M-140.015,193.21c0,0-0.47,13.936,8.68,14.3c14.487,0.576,15.151-13.973,9.956-19.522
				C-121.378,187.988-129.52,186.403-140.015,193.21z"/>
			<path fill="#231F20" stroke="#231F20" d="M-110.753,181.901c0,0-18.572-7.614-43.449,12.537l0.1,1.627
				C-154.103,196.065-130.24,176.616-110.753,181.901z"/>
		</g>
		
			<ellipse transform="matrix(0.1865 -0.9825 0.9825 0.1865 -301.1106 146.268)" stroke="#231F20" stroke-width="2" cx="-62.232" cy="254.958" rx="5.404" ry="12.712"/>
		<g>
			<path stroke="#231F20" stroke-width="2" d="M-41.962,304.68c-7.541,1.137-15.59,3.266-26.133,2.15c0,0-7.611,2.92-11.451,5.225
				c-3.039,1.822-4.816-5.023,14.099-16.656c9.63-5.92,14.624-6.068,14.624-6.068l11.709,0.258l9.162-7.971
				c0,0,16.328,2.689,18.835,5.824C-11.118,287.441-15.936,300.754-41.962,304.68z"/>
			<path fill="#FFFFFF" stroke="#231F20" stroke-width="2" d="M-78.314,311.512c0,0,5.678-0.658,10.533,3.191
				c8.852,7.014,27.967,4.42,36.999-1.039c0,0,5.395,0.189,13.247-4.848c7.852-5.033,6.476-11.832,5.837-20
				c0,0-18.245,3.041-23.582,13.48c0,0-3.118-3.998-19.449,1.957C-61.063,306.566-67.531,304.768-78.314,311.512z"/>
		</g>
		<g>
			<path stroke="#231F20" stroke-width="3" d="M-28.994,229.563c0,0,16.772,16.746,1.52,21.597c0,0-7.571,2.023-11.601,5.049
				c2.823-2.119-7.545,14.177-15.859,3.105c-3.171-4.224-12.412-5.353-16.891-1.991c-4.472,3.358-14.84-2.059-12.029-8.566
				c2.808-6.514,5.452-15.103,14.058-12.029c0,0-2.18-1.226-5.066,2.897c-2.887,4.125-6.425,8.101-5.929,9.86
				c0.497,1.761,3.305,7.439,8.448,5.646c5.143-1.797,14.145-1.211,18.312,3.159c4.167,4.375,5.472,3.604,7.465,3.296
				c1.993-0.308,3.826-2.194,4.657-3.45c0.832-1.255,3.224-5.009,10.465-7.122C-24.204,248.902-15.397,246.921-28.994,229.563z"/>
			<path fill="#FFFFFF" d="M-28.851,229.39c13.597,17.357,4.789,19.338-2.452,21.449c-7.239,2.115-9.631,5.869-10.462,7.126
				c-0.832,1.252-2.666,3.141-4.658,3.448c-1.993,0.309-3.298,1.077-7.466-3.293c-4.167-4.375-13.169-4.959-18.312-3.164
				c-5.144,1.796-7.951-3.883-8.449-5.644c-0.497-1.761,3.042-5.736,5.93-9.86c2.887-4.124,5.067-2.896,5.067-2.896L-28.851,229.39z
				"/>
			<path fill="#231F20" d="M-57.834,169.767c0,0-19.155,12.479-10.937,23.422c8.216,10.942,15.676,19.605,21.455,24.772
				c5.78,5.167,20.08,7.74,15.969,2.268c-4.106-5.469-16.739-15.951-18.722-28.724C-52.056,178.735-45.524,163.371-57.834,169.767z"
				/>
		</g>
		<path fill="#231F20" stroke="#231F20" d="M-53.827,158.655c0,0-1.409-8.103,6.802-13.813c8.206-5.71,12.454-3.455,12.454-3.455
			l-0.969-4.324l23.308-7.485c0,0,9.771-4.606,11.946,4.686c2.241,9.571-21.78,1.52-35.552,14.622
			c-13.771,13.098-12.585,8.828-12.585,8.828L-53.827,158.655z"/>
		<path fill="#231F20" stroke="#231F20" d="M-162.932,181.679l26.424-11.885c0,0,34.104-4.037,39.425-0.313
			c5.322,3.728,10.432-8.998,10.432-8.998s-43.863-3.207-50.863-2.905c-7.168,0.308-14.952,9.918-26.753,19.735"/>
		<path stroke="#000000" d="M-298.541-76.907c0,0-33.995-4.634-14.75,17.795c0,0-21.827,1.875-14.753,9.311
			c0,0-18.59,17.685-11.514,25.122c0.298,0.316,0.563,0.592,0.788,0.83c5.105,5.366-7.864-8.267-7.864-8.267
			s3.787,11.358,13.641,4.346c0,0,1.471,5.684-0.257,10.479c-1.733,4.799,4.492,13.826-2.373,14.06
			C-342.486-3-354.264,0.336-351.218,7.668c3.044,7.338-5.568-3.363-9.755,2.987c-4.19,6.347-6.973,20.798-3.001,23.317
			c3.971,2.521,12.068,1.109,10.227-5.799c-1.844-6.898-2.529-11.756,2.6-7.191c5.128,4.564,11.309-0.523,13.354-1.686
			c2.045-1.159,3.87,6.552-3.652,16.85c-7.516,10.298-9.088,8.646-8.44,15.119c0.639,6.465-6.02-1.363-0.778,14.899
			c5.242,16.262,0.948,26.644,9.284,32.096c8.333,5.449-0.081,3.226-4.485,1.904c-4.404-1.319-7.62,14.329,1.291,12.938
			c8.909-1.392,7.811-5.857,9.976-11.853c2.166-5.99,40.93-32.081,38.411-28.115c-2.518,3.974-3.36,21.295,1.301,28.669
			c4.656,7.378,2.799,17.011-2.036,16.887c-4.835-0.117-12.434,13.403-3.135,12.428c9.303-0.978,20.334-6.754,21.353,0.936
			c1.018,7.692,6.24,24.76,10.349,21.632c4.113-3.119-4.554-11.406-1.25-14.549c3.305-3.146-6.791-18.725,5.416-6.72
			c11.611,11.419,0.098,12.766,11.68,18.401c0.59,0.286,1.238,0.583,1.952,0.896c14.761,6.419-1.361-0.609-1.361-0.609
			s-2.375,4.951,3.537,10.342c0,0-11.956,10.592-0.736,13.29c11.229,2.702,16.417,4.85,16.164-1.207
			c-0.25-6.055,14.528-0.445,13.866-6.111c-0.665-5.66-32.213,22.226-23.569,31.312c8.645,9.086,16.86,19.377,12.317,23.699
			c-4.545,4.325-17.282,29.817,2.537,27.493c19.818-2.332-0.111-11.701,2.527-20.507c0,0,10.765-11.023,9.021-21.958
			c-1.745-10.938,4.161-21.272,7.283-17.163c3.125,4.112,2.158,10.543-0.615,8.457c-2.767-2.089-0.179,7.253,5.565,3.365
			c5.742-3.893,9.249-15.095,4.532-20.054c-4.715-4.955-0.22-23.395,2.922-20.093c3.145,3.307,17.928,8.918,19.369-0.319
			c1.438-9.245,2.155-21.729,5.006-22.868c2.849-1.137,11.636,2.308,13.391-3.293c1.754-5.605,12.073,1.105,17.577,6.892
			c5.501,5.782-0.679,10.873,1.186,16.97c1.865,6.092-17.763,16.897-10.136,18.294c7.629,1.404,28.147-12.603,26.776-22.32
			c0,0,5.366-5.105,2.636-8.808c0,0,10.765-11.02,1.127-12.875c-9.632-1.851-3.557-2.914,0.577-6.845
			c4.131-3.93,14.855-13.34,10.295-24.746c-4.551-11.407,52.376-56.762,55.499-52.65c3.129,4.11-2.581,6.39,4.161,10.995
			c6.746,4.604,9.498,7.495,16.871,2.838c0,0,10.589,11.961,14.74,7.226c4.15-4.737,12.311-8.564,15.851-4.846
			c3.535,3.716-6.882,1.036-2.973,5.973c3.909,4.938,14.04,3.173,10.56-2.962C2.466,62.489,1.059,54.39-8.18,52.947
			c0,0,1.579-14.883-5.245-16.259c-6.819-1.384-17.676-2.865-20.636-13.424c-2.961-10.561,3.344-4.756,6.881-1.036
			c3.538,3.718,8.295,7.059,9.555,5.074c1.261-1.986-2.743-19.428-10.039-17.996c0,0-5.218-17.072-14.62-12.059
			c-9.4,5.006,5.947-11.954-10.036-17.999c0,0-0.322-19.366-13.655-18.493c0,0-6.562-11.856-13.108-7.985
			c0,0,1.089-11.27,3.921-11.602c2.833-0.333,14.389,5.2,9.906,7.102c0,0,11.487-7.778-11.34-14.397
			c-22.823-6.62-24.386-24.805-42.989-22.853c-18.597,1.954-23,0.633-29.289-5.976c-6.29-6.613-20.7-11.004-28.136-3.93
			c0,0-8.091-15.126-13.332,0.88c0,0-51.3-19.856-61.228-18.868C-313.752-110.681-284.533-90.244-298.541-76.907z"/>
		<path stroke="#231F20" d="M-131.735,123.263c11.163-65.062,79.469-56.617,83.395-51.477c3.922,5.137-3.118,7.892,5.295,13.69
			c8.411,5.793,11.859,9.418,20.94,3.734c0,0,13.278,14.97,18.366,9.145c5.085-5.823,15.154-10.475,19.583-5.819
			c4.429,4.658-8.514,1.207-3.609,7.38c4.91,6.175,17.439,4.11,13.058-3.546c-4.388-7.657-6.238-17.727-17.709-19.629
			c0,0,1.777-18.448-6.699-20.242c-8.471-1.797-21.94-3.769-25.745-16.907c-3.803-13.14,4.088-5.859,8.515-1.203
			c4.432,4.657,10.373,8.864,11.907,6.416C-2.896,42.357-8.072,20.667-17.1,22.35c0,0-6.677-21.243-18.272-15.146"/>
		<circle fill="#FFFFFF" cx="-132.313" cy="195.683" r="2.119"/>
		<circle fill="#FFFFFF" cx="-30.874" cy="175.25" r="2.118"/>
		<path fill="#231F20" d="M-63.94,295.281c0,0-6.866,10.061,1.105,8.83c5.443-0.838,20.943-2.428,25.819-8.984
			c0,0,9.288,1.299,14.008-4.713c2.926-3.727,2.367-7.158,2.367-7.158s6.474,1.902,7.36,2.771c0.886,0.869,3.305,2.207,1.582,2.789
			c-1.724,0.578-14.061,3.365-17.062,6.863c-3.003,3.496-6.52,6.617-6.52,6.617s-2.089-1.705-4.776-1.436
			c-2.689,0.271-2.183,0.541-4.713,0.797c-2.529,0.252-10.402,2.959-11.51,3.07c-1.106,0.113-9.313,1.1-11.321,1.781
			c-2.007,0.68-8.584,3.578-9.501,3.988c-0.916,0.412-2.971,2.217-3.649,1.807C-81.431,311.893-80.894,306.143-63.94,295.281z"/>
		<path fill="#231F20" d="M-67.689,298.213c-0.315,4.264,2.984-1.818,7.964-4.717c3.657-2.125,6.622-2.713,6.621-2.713l13.989-1.195
			l9.162-7.971l-9.532,6.941l-11.965,0.674l-7.314,2.439l-3.151,1.488l-2.898,1.889l-3.086,2.121L-67.689,298.213z"/>
		<path fill="#231F20" d="M-14.858,290.979c0,0-6.265,12.875-13.632,15.854c-7.366,2.975-3.227,4.857,0.172,3.814
			c3.099-0.951,11.045-3.453,13.286-9.748C-12.79,294.604-12.992,290.471-14.858,290.979z"/>
		<path stroke="#231F20" stroke-width="2" d="M-51.135,274.801l2.016,8.916c0,0,3.536,0.721,5.971-0.012
			c2.435-0.73-2.481-1.633-4.17-9.459L-51.135,274.801z"/>
		<path fill="#231F20" d="M-97.874,194.558c0,0-4.838,1.126-11.877-2.158c-7.038-3.285-12.347-2.929-17.474-2.234
			c-9.139,1.239-19.28,8.915-20.561,10.481c-1.28,1.566-2.854-0.17-2.854-0.17s9.168-9.037,14.022-10.004
			c4.854-0.968,15.272-3.773,17.25-3.174c1.976,0.6,5.077,1.246,7.908,2.398C-108.629,190.849-100.387,194.971-97.874,194.558z"/>
		<path fill="#231F20" d="M-89.382,203.287c0,0,1.828-9.341,0.245-12.376c-1.583-3.035-7.644-18.823-4.291-17.244
			s17.916,25.668,19.377,33.827C-72.59,215.653-81.733,196.767-89.382,203.287z"/>
		<path fill="#020202" d="M-208.923,175.069c0,0,7.873,46.485,24.258,50.585c16.385,4.101,26.322,13.962,31.266,31.353
			c4.944,17.391,13.068,60.016,34.012,71.325c20.943,11.309,49.021,34.25,75.897,26.221c0,0-8.304,6.371-26.479,3.516
			c-18.177-2.854-48.227-13.674-67.021-26.9c-18.794-13.229-51.677-33.131-54.886-39.623c-3.208-6.492-12.114-20.926-14.439-29.212
			c-2.326-8.284-14.665-48.356-14.665-48.356L-208.923,175.069z"/>
		<path fill="#231F20" d="M-150.429,200.292c0,0-5.489,2.115-7.613-5.006c0,0,4.949,4.424,10.265,1.74L-150.429,200.292z"/>
		<path fill="#231F20" d="M-147.69,197.887c0,0-5.488,2.115-7.612-5.006c0,0,4.948,4.425,10.265,1.739L-147.69,197.887z"/>
		<path fill="#231F20" d="M-144.642,197.278c0,0-7.01,0.033-6.89-9.714c0,0,4.062,7.754,11.077,6.938L-144.642,197.278z"/>
		<path fill="#231F20" d="M0.096,169.382c0,0,5.802,0.979,6.464-6.422c0,0-3.969,5.323-9.712,3.75L0.096,169.382z"/>
		<path fill="#231F20" d="M-3.066,167.571c0,0,5.8,0.979,6.462-6.422c0,0-3.968,5.322-9.713,3.75L-3.066,167.571z"/>
		<path fill="#231F20" d="M-6.176,167.582c0,0,6.877-1.364,4.817-10.892c0,0-2.434,8.407-9.474,9.006L-6.176,167.582z"/>
	</g>
	<path display="inline" fill="#FFFFFF" stroke="#231F20" stroke-width="4" d="M-155.866,26.213L-8.18,52.947
		c0,0-6.113-18.126-6.828-20.165c-1.401-3.997-9.175-6.23-9.175-6.23s4.824-3.216,4.804-5.198c-0.1-9.439-11.02-24.08-14.271-24.087
		c-8.634-0.021-11.611-16.741-18.67-18.019c-7.059-1.278-0.626-15.751-8.667-14.143s-85.23,9.648-98.095,36.986
		C-171.947,29.429-155.866,26.213-155.866,26.213z"/>
	<path display="inline" fill="#231F20" d="M-38.925-5.342c0,0-57.537,4.288-61.468,8.219c-3.932,3.931-2.859,6.076,6.433,4.646
		s53.606-11.078,63.97-7.505L-38.925-5.342z"/>
	<path display="inline" fill="#231F20" d="M-74.201,9.57c0,0,48.907-3.002,44.045,7.244C-35.018,27.061-64.423,9.843-74.201,9.57z"
		/>
	<path display="inline" fill="none" stroke="#231F20" stroke-width="10" d="M-27.858,147.473
		c-23.262,7.481-34.213,20.617-33.712,22.146c7.917,24.15,31.833,37.993,53.418,30.917c21.585-7.076,32.666-32.391,24.749-56.541
		C15.345,140.178-4.596,139.993-27.858,147.473z"/>
	<path display="inline" fill="none" stroke="#000000" stroke-width="10" d="M-133.358,179.973
		c-23.262,7.481-34.213,20.617-33.712,22.146c7.917,24.15,31.833,37.993,53.418,30.917c21.585-7.076,32.666-32.391,24.749-56.541
		C-90.155,172.678-110.096,172.493-133.358,179.973z"/>
	<path display="inline" fill="none" stroke="#231F20" stroke-width="13" d="M-62.71,172.486c0,0-23.5,6.5-26,10"/>
	<polygon display="inline" points="-170.71,198.153 -226.71,209.486 -220.043,219.486 -162.71,215.486 	"/>
	<path display="inline" fill="#FFFFFF" stroke="#231F20" d="M0.957,139.153c0,0-43.899,5.005-54.783,19.502
		c0,0,0.167,2.419,3.116,0.831c4.333-2.333,20.667-14.667,52-17.333C1.29,142.153,3.29,139.819,0.957,139.153z"/>
	<path display="inline" fill="#FFFFFF" d="M-182.71,202.486c0,0-40,7-40,9.5s7-0.5,10.5-1S-177.71,204.986-182.71,202.486z"/>
	<path display="inline" fill="#FFFFFF" stroke="#231F20" d="M-105.043,170.153c0,0-43.899,5.005-54.783,19.502
		c0,0,0.167,2.419,3.116,0.831c4.333-2.333,20.667-14.667,52-17.333C-104.71,173.153-102.71,170.819-105.043,170.153z"/>
</g>
<g id="Layer_7" display="none">
	<path display="inline" fill="#FFFFFF" stroke="#231F20" stroke-width="5" d="M-216.598,418.068l-3,10.5c0,0-23.999,9-20.999,21
		c3,11.998,3,25.498,3,25.498s-17.999,47.995-16.499,59.995s-3,134.994,43.498,230.99c46.498,95.994,55.497,106.494,55.497,106.494
		l302.985,8.439l12-197.429c0,0,1.5-9.002-1.5-25.5c-3-16.5,122.995,25.498,155.993,19.498s79.496-25.498,79.496-44.998
		c0-9.678-0.369-21.571-0.742-33.116c-0.377-11.716-0.758-23.068-0.758-31.38c0-16.5-9-97.493-56.998-184.49
		c-47.998-86.996-65.996-128.994-71.996-145.493s-32.998-55.498-40.498-59.997s-14.999-26.999-22.499-29.999
		s-20.999-16.499-20.999-16.499s-10.5-6-19.499-7.5c-6.209-1.035-13.132-4.925-19.784-5.761c-2.989-0.375-5.924-0.134-8.714,1.261
		c-9,4.5-67.497,44.998-67.497,59.997s4.5,23.999,4.5,23.999s-19.499,10.5-10.5,22.499c8.999,11.999,9,10.499,20.999,17.999
		c11.999,7.5,22.499-1.5,26.999,7.5c1.385,2.771,6.041,4.973,12.214,6.649c13.881,3.771,35.44,4.887,44.783,3.85
		c13.499-1.5,37.498,37.499,44.998,70.497c7.499,32.998,19.499,80.996,22.499,110.994s-1.5,68.995-1.5,73.495
		s-19.499-1.5-19.499-1.5s-3-41.995-18-43.495s-53.997-9-64.497-9s-29.999,0-31.499,6c0,0-12-19.5-37.498-19.5
		c-25.498,0-52.7-8.665-60.098-17.081S-216.598,418.068-216.598,418.068"/>
	<path display="inline" fill="none" stroke="#231F20" stroke-width="5" d="M162.79,654.49c-61.497,3-61.403-84.928-58.403-104.426
		s38.998-40.498,38.998-40.498l65.997,5.998"/>
	<path display="inline" fill="#231F20" d="M-245.097,641.559c0,0,40.498,67.498,86.996,97.496s91.496,16.498,110.995,16.498
		s23.998,18,22.499,21s-28.499,10.498-37.498,11.998s34.499,20.998,53.998,18c19.499-3,62.997-26.998,62.997-7.5
		c0,19.5-7.5,37.498-7.5,37.498s-3,8.998,1.5,20.998s-3,16.5-3,16.5l-200.99-1.5C-155.101,872.547-254.096,709.057-245.097,641.559z
		"/>
	<path display="inline" fill="#231F20" d="M104.386,653.557c0,0-43.498-58.498-49.498-62.998s-47.998-29.998-34.499-4.5
		C33.89,611.559,89.387,652.057,104.386,653.557z"/>
	<path display="inline" fill="#231F20" stroke="#231F20" stroke-width="3" d="M48.889,644.557c0,0-29.999,16.498-52.498,17.998
		s-77.996-40.496-83.996-47.996s-17.999-28.5-38.998-30c-20.999-1.498-41.999,1.5-16.5,18s64.497,34.498,83.996,44.998
		S-6.608,674.555,48.889,644.557z"/>
	<path display="inline" fill="#231F20" stroke="#231F20" stroke-width="2" d="M95.79,473.986c0,0-46.9,38.078-45.4,69.576
		c0,0,0-46.498,34.498-82.496L95.79,473.986z"/>
	<path display="inline" fill="#231F20" d="M383.79,603.486c0,0-30,6-38-29s-33-110-41-156c-8-46-37-147-48-165s-55-70-86-97
		s-21.976-39.422-30.69-38.162c-8.714,1.26,28.876,2.359,39.283,13.26c10.407,10.901,20.999,16.499,20.999,16.499l14.659,19.152
		l7.25,12.25l15.5,16.75l23,35.5c0,0,65.332,144.417,78,158.417c12.666,14,37.334,85.333,38.666,94.667
		c1.334,9.332,14.668,64.666,14.668,76.666s0,40.666,0,40.666S385.456,603.488,383.79,603.486z"/>
	<path display="inline" fill="none" stroke="#231F20" stroke-width="4" d="M129.79,184.486l-25,24c0,0-20.804-7.811-36.402-4.905"/>
	<path display="inline" fill="#FFFFFF" stroke="#231F20" stroke-width="5" d="M65.388,650.561c0,0,67.497,14.998,94.496,11.998"/>
	<path display="inline" fill="#FFFFFF" stroke="#231F20" stroke-width="5" d="M105.886,58.088c0,0-19.5,13.499-25.499,4.5
		s9-25.499,16.5-25.499c0,0-14.999-23.999-38.998-23.999S14.391,40.089,6.891,58.088s-1.5,29.999-1.5,29.999
		s16.5-13.499,25.499-10.5s13.5,14.999,0,23.999s-13.5,9-13.5,9s26.999,19.499,34.499,20.999s38.998,70.497,38.998,70.497
		l13.902,6.405l25-24c0,0-28.403-76.901-28.403-82.9S116.386,68.587,105.886,58.088z"/>
	<path display="inline" fill="none" stroke="#231F20" stroke-width="3" d="M90.457,29.819c0,0-16,7.667-24.333,23.667
		s-21,13-28.667,13.333s-28,8.333-32,12.667"/>
	<path display="inline" fill="none" stroke="#231F20" stroke-width="3" d="M23.124,77.486c0,0,15.333-9.333,21.667,0
		s9.667,27.333-15.667,37l-4.667,3.333"/>
	<path display="inline" fill="none" stroke="#231F20" stroke-width="3" d="M84.29,43.736c0,0-7.623,4.726-11.25,11
		c-3.399,5.878-3.334,15.202,4.083,18.75c15.333,7.333,29.667-5.667,32-8.333"/>
	<path display="inline" fill="none" stroke="#231F20" stroke-width="3" d="M107.457,75.819c0,0-8.667,5.667-14,6.333
		s-23.333-6-31.333,2.667s-8.667,23-17.667,28.667s-12,7.667-12,7.667"/>
	<polyline display="inline" fill="none" stroke="#231F20" stroke-width="5" points="119.124,192.819 88.457,119.152 72.79,127.819 
		106.124,203.486 107.457,205.819 	"/>
	<polyline display="inline" fill="none" stroke="#231F20" stroke-width="5" points="76.457,129.819 87.124,124.486 117.124,194.486 
			"/>
	<ellipse display="inline" fill="#FFFFFF" stroke="#231F20" stroke-width="5" cx="42.957" cy="41.152" rx="7.167" ry="5.667"/>
	<path display="inline" fill="#231F20" d="M81.123,209.485c0,0-6.333,15.667-6.333,19S64.456,218.819,81.123,209.485z"/>
	<path display="inline" fill="none" stroke="#231F20" stroke-width="4" d="M234.88,535.062c0,0-6-8.998-6-26.997"/>
</g>
<g id="Layer_2" display="none">
	<path display="inline" fill="#FFFFFF" stroke="#231F20" stroke-width="5" d="M-223.21,415.486c0,0,8-16,2-28
		c-4.259-8.518-10.902-26.965,18-36c11.818-3.695,81.787,3.615,92,4c78.407,2.945,88,14,88,14l21,63c0,0-5.261,3.889-8-1
		c-6.925-12.359-16.134-41.801-19-44.667c-4-4-4,40-4,40S-187.21,439.486-223.21,415.486z"/>
	<path display="inline" fill="#231F20" d="M-221.877,382.152c0,0,26,16.667,39.333,17.334c13.333,0.666,18.667,12.668,2.667,11.334
		s-36.667-8.002-42-3.334C-221.877,407.486-210.543,393.486-221.877,382.152z"/>
	<path display="inline" fill="#FFFFFF" d="M-203.085,346.861c0,0-10.25,4.125-9.792,12.959c0.52,10.014,13,1,13,1
		s-8.25-5.377,0.417-12.709L-203.085,346.861z"/>
</g>
<g id="scarf_and_hair" display="none">
	<path display="inline" fill="#FFFFFF" stroke="#231F20" stroke-width="5" d="M-229.761,208.723c0,0,5.718-109.356,23.586-142.234
		c17.869-32.878-19.298-35.022-19.298-35.022S-326.61,72.564-328.04,79.712s4.646,34.665,7.506,39.668
		c2.86,5.003,5.003-1.43,7.862-3.574c0,0-14.295,5.717,0,22.157s10.721,27.875,26.445,29.305S-242.626,223.732-229.761,208.723z"/>
	<path display="inline" fill="#231F20" d="M-250.489,125.812c-4.506,9.277-10.72-2.145-27.159,30.019
		c0,0,0.713-18.582,16.438-34.307C-253.419,113.733-246.063,116.703-250.489,125.812z"/>
	<path display="inline" fill="#231F20" d="M-313.745,113.126c11.92-6.812,46.818-26.626,46.818-26.626s-45.744,30.734-49.317,43.6
		C-319.818,142.965-318.749,115.986-313.745,113.126z"/>
	<path display="inline" fill="#231F20" d="M-269.609,177.275c0,0,12.33-19.298,17.154-34.844
		c4.824-15.546,8.577-17.154,11.793-18.226c0,0-6.969,14.473-9.649,27.339c-2.68,12.865-10.721,30.555-12.33,33.771
		C-264.249,188.532-269.609,177.275-269.609,177.275z"/>
	<path display="inline" fill="#231F20" d="M-239.59,217.479"/>
	<g display="inline">
		<path fill="#FFFFFF" stroke="#231F20" stroke-width="5" d="M-294.944,117.521c0,0,27.828-17.948,48.688-19.322
			c20.859-1.374,82.615-42.507,63.696-60.6c-18.919-18.093-45.881-11.483-66.761,14.065c-20.879,25.549-34.362,42.983-45.825,64.689
			"/>
		<path fill="#FFFFFF" stroke="#231F20" stroke-width="5" d="M-71.896-50.38c0,0-84.599,20.613-102.01,33.579
			c-17.411,12.966-43.212,37.228-16.479,51.584c26.732,14.356,65.553-16.135,86.476-49.209
			C-82.989-47.501-76.639-48.994-71.896-50.38z"/>
		<path fill="#231F20" d="M-250.479,79.239c0,0,25.268-53.753,48.386-43.77c23.119,9.984,3.487,19.449,3.407,25.018
			c0,0,1.612-15.294-3.977-13.982S-251.811,75.042-250.479,79.239z"/>
		<path fill="#FFFFFF" stroke="#231F20" stroke-width="5" d="M-203.864,34.058c0,0,3.046-19.003,18.84-15.745
			c15.794,3.257,19.897,0.301,20.319,6.72c0.423,6.419-1.364,11.909-15.342,11.755c0,0,0.769,19.827-7.213,12.831
			C-195.243,42.624-204.589,47.536-203.864,34.058z"/>
		<path fill="#FFFFFF" stroke="#231F20" stroke-width="5" d="M-191.75,30.396c0,0,9.675,0.078,11.702,6.392"/>
	</g>
	<path display="inline" stroke="#231F20" d="M-122.788,74.857c0,0-10.325-13.215-10.553-1.123c0,0-46.429-22.929-54.204-23.5
		c-48.705-3.575-19.975,16.79-27.958,25.542c0,0-28.634-8.373-7.466,12.218c0,0-17.17-1.494-9.593,5.428
		c0,0-14.074,13.541-6.493,20.464c0.32,0.294-4.138-0.833-4.422-0.67c-4.691,2.68,8.711,5.495,8.711,5.495s8.979-1.742,3.719-8.336
		c0,0,2.612,4.75,2.415,8.351c-0.199,3.603,7.091,11.682,1.602,10.927c-5.489-0.756-14.172,0.297-9.875,6.584
		c4.296,6.29-5.342-3.456-7.137,1.052c-1.797,4.505-0.429,15.688,3.411,18.249c3.84,2.562,10.03,2.543,6.813-3.237
		c-3.217-5.774-4.986-9.756,0.301-5.399c5.287,4.356,9.009,1.133,10.369,0.481c1.364-0.645,4.767,5.775,1.267,12.985
		c-3.496,7.211-5.18,5.673-3.036,10.942c2.133,5.262-5.208-1.917,3.101,11.817"/>
	<polygon display="inline" stroke="#000000" stroke-width="5" points="-153.877,316.82 -147.877,351.486 -169.211,350.82 
		-176.544,299.486 	"/>
</g>
<g id="Layer_14">
	<circle fill="#FFFFFF" stroke="#231F20" cx="434.29" cy="452.486" r="395"/>
	<circle fill="#FFFFFF" stroke="#231F20" stroke-width="17" cx="441.652" cy="447.845" r="426.729"/>
</g>
<g id="Layer_11">
	<g opacity="0.2">
		<path stroke="#000000" stroke-width="5" d="M117.681,131.142c0.021,0.022,0.047,0.049,0.068,0.071
			C119.516,133.07,119.026,132.555,117.681,131.142z"/>
		<path stroke="#000000" stroke-width="5" d="M116.087,129.466c-2.545-2.675-5.899-6.202-5.899-6.202
			S111.915,128.444,116.087,129.466z"/>
		<path stroke="#000000" stroke-width="5" d="M117.681,131.142c-0.201-0.213-0.431-0.453-0.69-0.727
			c-0.272-0.285-0.49-0.591-0.686-0.905c-0.072-0.016-0.147-0.026-0.218-0.043C116.682,130.091,117.229,130.666,117.681,131.142z"/>
		<path stroke="#000000" stroke-width="5" d="M380.735,104.404c0.5-0.212,0.784-0.473,0.906-0.764
			C381.14,104.128,380.735,104.404,380.735,104.404z"/>
		<path stroke="#000000" stroke-width="5" d="M821.482,730.515c-0.363-11.263-0.73-22.181-0.73-30.172
			c0-1.444-0.074-3.411-0.238-5.845c0-0.158,0-0.325,0-0.48c0-1.551-0.234-3.86-0.639-6.711
			c-1.512-14.228-5.238-37.057-13.084-64.765c-0.17-0.91-0.301-1.666-0.381-2.24c-1.271-8.888-24.547-76.244-36.824-90.611
			c-1.188-2.24-2.398-4.485-3.639-6.736c-10.113-18.331-18.844-34.584-26.367-48.957c-21.242-43.754-45.348-97.035-45.348-97.035
			l-0.752-1.16c-9.035-17.896-29.436-46.671-35.7-50.429c-0.967-0.581-1.935-1.481-2.901-2.597l-4.635-7.833l-2.714-3.546
			c-3.793-6.645-7.588-13.352-11.381-14.869c0,0-4.831-2.555-11.108-7.57c-4.92-4.133-9.082-8.295-9.082-8.295
			c-5.66-5.927-19.672-8.839-29.27-10.471c-1.773-0.629-3.557-1.22-5.333-1.665c-0.724-0.625-1.675-0.83-3.169-0.614
			c-2.873-0.361-5.696-0.129-8.378,1.212c-2.757,1.378-10.343,6.271-19.397,12.76c-5.168-14.825-9.447-27.784-9.447-30.066
			c0-5.769,14.424-31.728,4.328-41.823c0,0-1.063,0.734-2.752,1.734l-17.164-14.802c3.613-4.112,8.121-7.124,11.263-7.124
			c0,0-14.423-23.075-37.498-23.075s-41.824,25.96-49.035,43.267c-0.396,0.95-0.747,1.879-1.067,2.794
			c-0.99-2.178-2.479-3.852-4.707-4.324c-0.728-0.154-1.494-0.31-2.287-0.474c-1.599-1.439-3.644-2.505-6.43-2.939
			c0,0,0.413-3.915-0.128-7.838c1.712,0.846,3.101,1.005,3.727,0.007c1.481-2.353-3.496-23.209-12.175-21.59
			c0,0-1.072-3.408-3.099-7.04c-0.324-0.655-0.673-1.284-1.049-1.866c-3.209-7.623-9.47-15.205-11.765-15.21
			c-0.364,0-0.715-0.043-1.061-0.104l-4.009-2.405c0,0-0.084,0.006-0.228,0.018c-2.09-2.051-3.825-5.061-5.562-7.842
			c-0.55-2.144-1.867-4.218-4.633-5.832c-0.767-0.589-1.579-1.001-2.458-1.16c0,0-0.311-18.621-13.129-17.781
			c0,0-5.369-9.69-11.143-8.274c2.279-1.539,3.951-1.995,5.451-2.434c0,0-2.521,0.615-6.755,1.692
			c0.382-2.909,1.487-9.568,3.613-9.818c2.408-0.283,11.362,3.84,10.431,6.064c2.115-2.062,5.936-7.933-11.809-13.078
			c-21.946-6.366-23.449-23.851-41.335-21.974c-17.881,1.878-22.115,0.609-28.161-5.745c-6.048-6.359-19.904-10.582-27.053-3.779
			c0,0-7.781-14.544-12.819,0.846c0,0-49.326-19.092-58.87-18.142c-59.79,5.953-31.695,25.604-45.163,38.428
			c0,0-32.687-4.456-14.183,17.11c0,0-20.987,1.802-14.186,8.953c0,0-16.464,15.67-11.756,23.25c1.85,0.381,4.161-0.048,6.998-2.067
			c0,0,1.414,5.465-0.248,10.076c-1.667,4.614,4.319,13.294-2.281,13.519c-6.599,0.222-17.923,3.43-14.995,10.479
			c2.927,7.056-5.354-3.234-9.38,2.872c-4.028,6.103-6.704,19.997-2.886,22.42c3.818,2.423,11.604,1.067,9.834-5.576
			c-1.773-6.633-2.432-11.304,2.499-6.915c4.931,4.389,10.874-0.502,12.84-1.621c1.966-1.115,3.721,6.3-3.512,16.202
			c-7.227,9.902-8.738,8.313-8.115,14.537c0.614,6.217-5.789-1.311-0.749,14.327c5.04,15.635,0.912,25.617,8.927,30.861
			c8.012,5.239-0.078,3.101-4.313,1.831c-4.235-1.269-7.327,13.777,1.241,12.439c8.565-1.338,7.51-5.632,9.591-11.396
			c0.53-1.465,3.339-4.182,7.19-7.354c1.6,9.954,4.59,21.732,6.336,24.786c0.769,1.346,1.484,1.83,2.176,1.786
			c-0.815,1.872-1.076,4.304-0.031,7.385c-0.193,3.826,0.251,6.074,1.373,3.061c0.948,1.713,2.26,3.587,4.042,5.636
			c13.745,15.807,10.308,26.802,25.428,28.177c5.456,0.496,12.433,7.705,19.705,16.037c0.362,0.482,0.722,0.905,1.064,1.226
			c9.153,10.571,18.67,22.478,26.139,24.712c0.084,0.306,0.17,0.614,0.26,0.933c1.321,4.626,2.558,9.328,3.748,13.953
			c-4.888,8.122-10.458,24.459,5.255,22.615c0.233-0.028,0.455-0.058,0.675-0.086c2.999,10.359,6.065,18.229,9.836,20.62
			c3.309,2.101,9.402,3.539,15.332,3.554c1.032,2.353,2.045,4.472,3.022,6.265c1.635,2.999,3.116,5.468,4.63,7.63
			c0.391,0.736,0.753,1.431,1.052,2.036c0.909,1.836,4.294,4.791,9.066,8.368c0.574,0.444,1.168,0.897,1.792,1.36
			c1.955,7.323,4.454,18.042,6.414,30.997c-35.065,6.996-40.991,22.036-40.991,22.036l1.354,0.063
			c-14.175,9.315-9.232,22.642-5.841,29.424c2.503,5.005,2.471,10.736,1.632,15.62c-1.159,2.229-2.273,3.609-2.273,3.609
			c0.459-0.403,1.043-0.713,1.726-0.954c-1.206,5.033-3.007,8.646-3.007,8.646c1.76,1.174,3.826,2.25,6.139,3.247l-2.666,9.331
			c0,0-23.076,8.654-20.191,20.192c2.885,11.536,2.885,24.517,2.885,24.517s-17.308,46.148-15.866,57.688
			c0.928,7.42-0.529,58.973,10.2,119.376c5.956,33.524,80.284,40.542,116.235,47.437c105.281,20.19,227.865-2.884,227.865-2.884
			l6.164-39.492c0,0,39.025,9.688,36.141-6.175c-0.338-1.862,1.051-2.94,3.783-3.419c0.152-0.006,0.3-0.005,0.453-0.013l0.024-0.072
			c21.574-3.038,117.94,27.304,145.728,22.252c31.729-5.771,76.438-24.517,76.438-43.267
			C822.195,753.052,821.839,741.615,821.482,730.515z M465.729,229.097l0.483,14.656c-2.027-4.188-3.813-8.642-7.145-11.81
			C461.218,230.795,463.503,229.761,465.729,229.097z M644.804,649.866c0,0-2.887-40.38-17.309-41.823
			c-14.422-1.442-51.918-8.652-62.014-8.652c-10.095,0-28.844,0-30.287,5.77c0,0-11.537-18.749-36.055-18.749
			c-4.639,0-9.333-0.301-13.949-0.839c-2.877-7.62-15.212-27.31-17.115-29.599c-8.799-10.588,3.387-30.271,7.413-26.372
			s15.625,20.191,15.625,20.191c-3.723-13.935-5.614-24.162-12.739-32.211c-4.322-4.881-22.64-6.459-36.388-6.945
			c-0.325-11.86-0.28-23.644-0.136-33.585c1.125-2.271,2.1-5.087,2.91-8.619c11.668-50.874,10.047-73.138,10.584-73.984
			c10.633-16.818,10.271-58.402,5.48-76.709c1.734-7.914,1.413-16.603-1.388-25.143c-0.459-1.401-3.543-2.29-8.417-2.458
			c-2.881-11.554-6.5-26.409-12.11-40.622c0.351-0.201,0.678-0.464,0.974-0.805c4.89-5.599,14.572-10.071,18.83-5.595
			c4.259,4.479-8.186,1.16-3.471,7.096c2.819,3.546,8.25,4.264,11.272,2.7l0.108,3.276c-6.416,4.278-6.424,4.282-6.424,4.282
			s2.76,1.993,6.721,4.723l0.072,2.232l1.56-1.112c1.938,1.324,4.083,2.766,6.293,4.211c-0.104,0.071-0.16,0.106-0.16,0.106
			l0.167-0.101c7.189,4.706,15.037,9.434,18.52,10.13c3.426,0.686,12.067,16.035,20.19,31.952
			c-5.252,5.627-8.655,10.655-8.655,14.199c0,14.422,4.327,23.075,4.327,23.075s-18.749,10.096-10.096,21.634
			s8.653,10.094,20.192,17.306c11.537,7.211,21.631-1.442,25.959,7.211c0.912,1.827,3.306,3.396,6.633,4.724
			c11.412,24.628,34.927,75.208,49.449,105.272c3.271,7.511,6.033,13.06,8.44,17.13c1.478,2.892,2.597,4.975,3.261,6.036
			c7.211,11.538,21.631,4.327,24.516-4.326c0.264-0.79,0.125-2.354-0.332-4.536c0.064-0.928,0.086-1.812,0.086-2.597
			c0-1.337-3.096-9.461-7.564-20.491c-12.165-32.647-34.012-81.983-34.012-81.983l-2.635-8.785c2.713-0.024,5.095-0.141,6.962-0.348
			c12.979-1.442,36.056,36.056,43.267,67.783c7.21,31.729,18.747,77.879,21.635,106.723c2.287,22.869,0.041,51.162-0.988,64.065
			l-0.455-2.052c0,1.878,0.078,3.635,0.199,5.309c-0.125,1.62-0.199,2.776-0.199,3.345
			C663.552,655.635,644.804,649.866,644.804,649.866z"/>
	</g>
</g>
<g id="Layer_13">
</g>
<g id="Layer_10">
	<path fill="#FFFFFF" stroke="#231F20" stroke-width="9" d="M442.42,21.547c-234.172,0-424.006,189.835-424.006,424.008
		c0,234.17,189.834,424.005,424.006,424.005c234.173,0,424.005-189.835,424.005-424.005
		C866.427,211.382,676.593,21.547,442.42,21.547z M440.018,822.45c-205.498,0-372.087-166.591-372.087-372.088
		c0-205.5,166.589-372.088,372.087-372.088c205.499,0,372.085,166.589,372.085,372.088
		C812.103,655.859,645.517,822.45,440.018,822.45z"/>
</g>
<g id="Layer_9">
	<path fill="#FFFFFF" stroke="#231F20" stroke-width="5" d="M614.998,411.9c0,0,44.707,100.956,41.823,109.606
		c-2.885,8.653-17.306,15.865-24.516,4.327c-7.214-11.538-67.785-142.777-67.785-142.777l53.36-8.653l-7.211,23.075L614.998,411.9z"
		/>
	<path fill="#FFFFFF" stroke="#231F20" stroke-width="5" d="M445.296,507.098c0,0,45.182-0.931,52.308,7.117
		c7.125,8.049,9.019,18.276,12.74,32.21c0,0-11.599-16.29-15.625-20.189c-4.027-3.9-16.212,15.783-7.413,26.372
		c2.38,2.863,21.105,32.983,17.188,32.6c-10.565-1.037-56.955-39.895-56.955-39.895L445.296,507.098z"/>
	<path fill="#231F20" d="M587.347,428.479c0,0,14.423,4.808,27.884-8.653l1.282-2.885c0,0,40.062,92.626,40.062,97.434
		s-0.641,13.142-8.974,14.743c-8.334,1.603-12.821,7.373-28.847-30.77C602.731,460.211,587.347,428.479,587.347,428.479z"/>
	<path fill="#FFFFFF" d="M651.91,514.711c0.465,1.148-0.089,2.457-1.236,2.923l0,0c-1.148,0.465-2.457-0.089-2.922-1.236
		l-33.947-83.766c-0.465-1.147,0.089-2.457,1.236-2.921l0,0c1.147-0.466,2.457,0.088,2.922,1.237L651.91,514.711z"/>
	<path fill="#FFFFFF" stroke="#231F20" stroke-width="4" d="M254.5,493.861c0,0,11.217-28.523,94.325-25.28
		c87.689,3.421,87.722,34.112,87.722,34.112L254.5,493.861"/>
	<path fill="#231F20" d="M266.359,491.619c0,0,1.923-18.269,71.152-16.347c69.229,1.924,69.229,26.924,69.229,26.924
		L266.359,491.619"/>
	<path fill="#FFFFFF" stroke="#231F20" stroke-width="5" d="M285.913,430.139c0,0,16.023,46.096,12.177,99.942
		c-3.846,53.844,165.38,40.383,165.38,40.383s31.645,14.344,31.568,10.096c-0.115-6.397-29.326-17.146-32.199-45.681
		c-3.23-32.072-1.293-76.081-1.293-85.565C461.546,433.929,308.35,432.12,285.913,430.139z"/>
	<g>
		<path fill="#FFFFFF" stroke="#231F20" stroke-width="3" d="M241.181,342.268c0,0-13.639-12.752-6.512,12.246
			c7.133,24.998,11.881,52.262,19.515,57.103c7.637,4.848,30.097,6.183,31.161-5.427
			C286.408,394.582,241.181,342.268,241.181,342.268z"/>
		<path fill="#FFFFFF" stroke="#000000" stroke-width="4" d="M267.193,244.24c-12.732,28.18-33.669,42.597-16.956,112.278
			c0,0,12.855,47.588,22.3,64.917c9.027,16.564,13.351,16.997,44.421,38.529c42.253,29.286,85.473,43.919,105.72,31.132
			c20.241-12.793,35.284,0.262,41.313-26.028c11.666-50.875,10.045-73.138,10.584-73.986c12.697-20.085,9.719-75.501,2.232-84.395
			c-7.496-8.897-12.053-76.059-46.004-99.77C405.728,189.4,303.181,164.586,267.193,244.24z"/>
		<path fill="none" stroke="#231F20" stroke-width="2" d="M419.098,329.6c0,0,13.971-31.212,43.474-16.584
			c0,0-6.721,12.414-17.926,15.078C433.436,330.758,424.851,325.589,419.098,329.6z"/>
		<path fill="#231F20" stroke="#231F20" d="M428.244,318.535c0,0-1.042,9.356,6.176,10.291c7.218,0.937,16.935-8.521,8.207-17.471
			C442.627,311.354,439.75,306.729,428.244,318.535z"/>
		<path fill="#231F20" stroke="#231F20" d="M422.159,313.724c0,0,26.075-19.897,41.159-8.099l0.109,0.871
			C463.427,306.495,449.416,295.318,422.159,313.724z"/>
		<g>
			<path fill="none" stroke="#231F20" stroke-width="2" d="M370.804,338.056c0,0-8.635-1.267-16.261-5.142
				c-7.631-3.875-25.931-1.437-36.674,10.624c0,0,8.595,5.973,12.729,6.11c4.13,0.138,7.165,2.308,16.596-1.517
				C356.635,344.309,370.804,338.056,370.804,338.056z"/>
			<path fill="#231F20" stroke="#231F20" d="M328.084,336.55c0,0-0.452,13.399,8.346,13.749c13.93,0.555,14.568-13.435,9.573-18.77
				C346.004,331.529,338.176,330.005,328.084,336.55z"/>
			<path fill="#231F20" stroke="#231F20" d="M356.22,325.676c0,0-17.858-7.321-41.777,12.054l0.096,1.564
				C314.539,339.295,337.483,320.595,356.22,325.676z"/>
		</g>
		
			<ellipse transform="matrix(0.1865 -0.9825 0.9825 0.1865 -61.2693 717.8929)" stroke="#231F20" stroke-width="2" cx="402.85" cy="395.943" rx="5.196" ry="12.225"/>
		<g>
			<path stroke="#231F20" stroke-width="2" d="M422.363,443.729c-7.251,1.094-14.99,3.14-25.127,2.068c0,0-7.319,2.808-11.011,5.022
				c-2.922,1.753-4.631-4.829,13.556-16.016c9.259-5.691,14.062-5.834,14.062-5.834l11.258,0.248l8.81-7.664
				c0,0,15.7,2.586,18.109,5.6C452.021,427.154,447.388,439.956,422.363,443.729z"/>
			<path fill="#FFFFFF" stroke="#231F20" stroke-width="2" d="M387.411,450.299c0,0,5.459-0.633,10.127,3.068
				c8.511,6.743,26.891,4.25,35.575-0.999c0,0,5.187,0.183,12.737-4.661c7.549-4.839,6.226-11.378,5.612-19.23
				c0,0-17.542,2.925-22.674,12.962c0,0-2.998-3.844-18.7,1.882C403.998,445.543,397.779,443.814,387.411,450.299z"/>
		</g>
		<g>
			<path stroke="#231F20" stroke-width="3" d="M434.833,371.504c0,0,16.127,16.101,1.461,20.766c0,0-7.28,1.947-11.154,4.855
				c2.715-2.037-7.254,13.632-15.249,2.986c-3.048-4.062-11.935-5.147-16.24-1.915c-4.299,3.229-14.269-1.979-11.567-8.236
				c2.7-6.263,5.243-14.522,13.517-11.566c0,0-2.096-1.179-4.871,2.785c-2.776,3.966-6.178,7.79-5.701,9.48
				c0.478,1.693,3.177,7.154,8.123,5.428c4.944-1.728,13.6-1.164,17.607,3.04c4.007,4.205,5.261,3.464,7.177,3.168
				c1.917-0.295,3.679-2.109,4.479-3.317c0.799-1.207,3.099-4.817,10.061-6.849C439.438,390.097,447.908,388.194,434.833,371.504z"
				/>
			<path fill="#FFFFFF" d="M434.971,371.338c13.073,16.688,4.604,18.595-2.358,20.622c-6.961,2.035-9.261,5.644-10.059,6.853
				c-0.8,1.204-2.564,3.021-4.479,3.314c-1.916,0.297-3.17,1.037-7.178-3.166c-4.007-4.206-12.663-4.768-17.607-3.041
				c-4.946,1.728-7.646-3.734-8.125-5.426c-0.478-1.695,2.925-5.516,5.701-9.482c2.776-3.965,4.873-2.785,4.873-2.785
				L434.971,371.338z"/>
			<path fill="#231F20" d="M407.102,314.01c0,0-18.417,11.999-10.515,22.521c7.899,10.521,15.072,18.852,20.629,23.817
				c5.558,4.969,19.308,7.443,15.354,2.181c-3.948-5.258-16.095-15.336-18.001-27.618
				C412.658,322.632,418.939,307.86,407.102,314.01z"/>
		</g>
		<path fill="#231F20" stroke="#231F20" d="M410.956,303.325c0,0-1.354-7.791,6.54-13.281c7.89-5.491,11.975-3.322,11.975-3.322
			l-0.932-4.157l22.412-7.197c0,0,9.395-4.43,11.485,4.505c2.155,9.202-20.941,1.461-34.183,14.06
			c-13.241,12.594-12.1,8.488-12.1,8.488L410.956,303.325z"/>
		<path fill="#231F20" stroke="#231F20" d="M306.05,325.463l25.406-11.427c0,0,32.791-3.882,37.908-0.301
			c5.117,3.584,10.03-8.652,10.03-8.652s-42.175-3.083-48.906-2.793c-6.893,0.296-14.377,9.536-25.723,18.976"/>
		<path stroke="#000000" d="M175.66,76.829c0,0-32.687-4.456-14.183,17.11c0,0-20.987,1.803-14.186,8.953
			c0,0-17.875,17.004-11.07,24.155c0.287,0.304,0.541,0.569,0.757,0.798c4.908,5.159-7.562-7.949-7.562-7.949
			s3.641,10.92,13.115,4.178c0,0,1.415,5.465-0.247,10.075c-1.667,4.614,4.319,13.294-2.281,13.519
			c-6.6,0.222-17.923,3.43-14.995,10.48c2.927,7.056-5.354-3.234-9.38,2.872c-4.029,6.103-6.704,19.998-2.886,22.42
			c3.817,2.423,11.604,1.066,9.833-5.576c-1.772-6.632-2.432-11.304,2.5-6.915c4.932,4.389,10.874-0.503,12.84-1.621
			c1.966-1.115,3.721,6.299-3.511,16.202c-7.227,9.902-8.738,8.312-8.115,14.537c0.613,6.217-5.789-1.31-0.749,14.326
			c5.041,15.636,0.913,25.618,8.927,30.861c8.012,5.239-0.078,3.102-4.312,1.831c-4.235-1.268-7.327,13.778,1.241,12.439
			c8.566-1.338,7.51-5.632,9.591-11.396c2.083-5.759,39.354-30.846,36.933-27.033c-2.421,3.821-3.23,20.476,1.251,27.566
			c4.477,7.094,2.691,16.355-1.958,16.236c-4.649-0.112-11.956,12.887-3.014,11.951c8.945-0.94,19.552-6.495,20.531,0.9
			c0.979,7.396,6,23.807,9.951,20.8c3.954-2.999-4.379-10.967-1.203-13.989c3.178-3.025-6.529-18.004,5.207-6.461
			c11.164,10.979,0.094,12.274,11.231,17.693c0.567,0.275,1.189,0.56,1.876,0.86c14.193,6.173-1.309-0.585-1.309-0.585
			s-2.283,4.76,3.401,9.944c0,0-11.495,10.184-0.708,12.778c10.797,2.598,15.785,4.664,15.542-1.16
			c-0.24-5.822,13.969-0.428,13.332-5.876c-0.639-5.442-30.973,21.37-22.662,30.106c8.312,8.737,16.211,18.632,11.843,22.788
			c-4.371,4.159-16.617,28.671,2.439,26.436c19.056-2.242-0.107-11.251,2.43-19.719c0,0,10.351-10.6,8.674-21.112
			c-1.677-10.517,4-20.454,7.002-16.503c3.005,3.954,2.075,10.137-0.591,8.131c-2.661-2.008-0.172,6.975,5.351,3.236
			c5.521-3.743,8.893-14.513,4.357-19.282c-4.534-4.765-0.211-22.494,2.81-19.32c3.023,3.18,17.238,8.575,18.624-0.307
			c1.383-8.89,2.072-20.893,4.813-21.987c2.739-1.093,11.189,2.219,12.876-3.167c1.687-5.39,11.609,1.062,16.9,6.626
			c5.29,5.559-0.652,10.454,1.141,16.317c1.793,5.857-17.08,16.247-9.747,17.59c7.335,1.35,27.064-12.118,25.746-21.461
			c0,0,5.159-4.908,2.535-8.469c0,0,10.351-10.595,1.084-12.379c-9.261-1.78-3.419-2.802,0.555-6.581
			c3.972-3.779,14.284-12.827,9.898-23.794c-4.375-10.968,50.36-54.577,53.363-50.624c3.008,3.952-2.481,6.144,4.001,10.572
			c6.487,4.426,9.133,7.206,16.222,2.729c0,0,10.181,11.5,14.173,6.948c3.99-4.554,11.837-8.234,15.24-4.659
			c3.399,3.574-6.616,0.996-2.857,5.743c3.759,4.748,13.5,3.05,10.152-2.849c-3.344-5.901-4.695-13.689-13.579-15.076
			c0,0,1.518-14.311-5.044-15.633c-6.556-1.332-16.995-2.755-19.841-12.908c-2.847-10.154,3.215-4.573,6.616-0.997
			c3.402,3.575,7.975,6.787,9.187,4.879c1.212-1.909-2.638-18.68-9.653-17.303c0,0-5.017-16.414-14.057-11.595
			c-9.039,4.814,5.718-11.494-9.65-17.306c0,0-0.31-18.621-13.13-17.781c0,0-6.308-11.4-12.604-7.678c0,0,1.047-10.836,3.77-11.156
			c2.724-0.32,13.835,5,9.525,6.829c0,0,11.045-7.479-10.903-13.844c-21.945-6.365-23.447-23.85-41.334-21.973
			c-17.881,1.878-22.115,0.609-28.162-5.746c-6.047-6.358-19.903-10.581-27.053-3.779c0,0-7.78-14.544-12.818,0.846
			c0,0-49.327-19.092-58.872-18.142C161.034,44.354,189.128,64.005,175.66,76.829z"/>
		<path stroke="#231F20" d="M336.046,269.294c10.733-62.558,76.41-54.437,80.185-49.496c3.771,4.939-2.998,7.587,5.091,13.163
			c8.087,5.57,11.403,9.056,20.134,3.59c0,0,12.767,14.394,17.659,8.793c4.891-5.599,14.571-10.071,18.83-5.595
			c4.258,4.479-8.186,1.16-3.471,7.096c4.721,5.938,16.77,3.952,12.556-3.409c-4.219-7.363-5.999-17.045-17.028-18.875
			c0,0,1.709-17.737-6.44-19.463c-8.146-1.728-21.096-3.624-24.754-16.256c-3.657-12.635,3.931-5.634,8.187-1.158
			c4.262,4.479,9.975,8.524,11.45,6.17c1.481-2.354-3.493-23.209-12.175-21.59c0,0-6.42-20.425-17.57-14.563"/>
		<circle fill="#FFFFFF" cx="335.49" cy="338.927" r="2.037"/>
		<circle fill="#FFFFFF" cx="433.025" cy="319.281" r="2.037"/>
		<path fill="#231F20" d="M401.231,434.692c0,0-6.602,9.675,1.062,8.491c5.234-0.806,20.138-2.334,24.826-8.639
			c0,0,8.931,1.248,13.469-4.532c2.813-3.582,2.276-6.883,2.276-6.883s6.226,1.83,7.077,2.665c0.852,0.836,3.178,2.122,1.521,2.682
			c-1.657,0.557-13.52,3.235-16.406,6.599c-2.887,3.361-6.269,6.363-6.269,6.363s-2.008-1.64-4.592-1.381
			c-2.586,0.262-2.099,0.521-4.532,0.768c-2.432,0.241-10.002,2.845-11.066,2.951c-1.064,0.108-8.956,1.058-10.886,1.713
			c-1.93,0.655-8.254,3.44-9.135,3.835c-0.881,0.396-2.857,2.133-3.509,1.735C384.413,450.666,384.93,445.137,401.231,434.692z"/>
		<path fill="#231F20" d="M397.627,437.512c-0.303,4.101,2.869-1.749,7.657-4.534c3.517-2.045,6.368-2.61,6.366-2.61l13.451-1.148
			l8.81-7.664l-9.166,6.676l-11.504,0.647l-7.033,2.345l-3.03,1.431l-2.787,1.815l-2.968,2.039L397.627,437.512z"/>
		<path fill="#231F20" d="M448.423,430.556c0,0-6.022,12.381-13.105,15.244c-7.083,2.859-3.103,4.67,0.165,3.668
			c2.979-0.915,10.62-3.32,12.774-9.374C450.414,434.042,450.219,430.068,448.423,430.556z"/>
		<path stroke="#231F20" stroke-width="2" d="M413.543,415.002l1.938,8.571c0,0,3.399,0.694,5.74-0.011
			c2.341-0.703-2.386-1.57-4.009-9.095L413.543,415.002z"/>
		<path fill="#231F20" d="M368.604,337.847c0,0-4.651,1.083-11.419-2.075c-6.767-3.158-11.872-2.816-16.801-2.148
			c-8.787,1.19-18.539,8.571-19.77,10.078c-1.23,1.506-2.744-0.164-2.744-0.164s8.815-8.689,13.482-9.619
			c4.667-0.932,14.684-3.629,16.586-3.053c1.899,0.577,4.881,1.198,7.604,2.307C358.263,334.28,366.187,338.243,368.604,337.847z"/>
		<path fill="#231F20" d="M376.769,346.239c0,0,1.758-8.982,0.235-11.9c-1.522-2.919-7.349-18.098-4.126-16.58
			c3.224,1.518,17.227,24.681,18.631,32.526C392.914,358.128,384.124,339.971,376.769,346.239z"/>
		<path fill="#020202" d="M261.829,319.107c0,0,7.57,44.696,23.324,48.639c15.754,3.943,25.309,13.426,30.062,30.146
			c4.754,16.721,12.565,57.707,32.704,68.58c20.137,10.872,47.134,32.932,72.976,25.211c0,0-7.984,6.125-25.459,3.38
			c-17.478-2.743-46.372-13.146-64.442-25.864c-18.071-12.719-49.688-31.856-52.773-38.098
			c-3.085-6.242-11.648-20.121-13.883-28.088c-2.237-7.964-14.1-46.495-14.1-46.495L261.829,319.107z"/>
		<path fill="#231F20" d="M318.071,343.359c0,0-5.278,2.033-7.32-4.813c0,0,4.758,4.254,9.87,1.673L318.071,343.359z"/>
		<path fill="#231F20" d="M320.705,341.047c0,0-5.277,2.034-7.319-4.813c0,0,4.757,4.254,9.87,1.672L320.705,341.047z"/>
		<path fill="#231F20" d="M323.636,340.461c0,0-6.74,0.032-6.625-9.34c0,0,3.905,7.456,10.651,6.672L323.636,340.461z"/>
		<path fill="#231F20" d="M462.803,313.639c0,0,5.579,0.941,6.215-6.175c0,0-3.815,5.118-9.338,3.606L462.803,313.639z"/>
		<path fill="#231F20" d="M459.763,311.898c0,0,5.576,0.941,6.213-6.175c0,0-3.814,5.117-9.339,3.606L459.763,311.898z"/>
		<path fill="#231F20" d="M456.772,311.908c0,0,6.612-1.312,4.632-10.472c0,0-2.34,8.083-9.109,8.66L456.772,311.908z"/>
	</g>
	<path fill="#FFFFFF" stroke="#231F20" stroke-width="4" d="M312.843,175.98l142.003,25.705c0,0-5.878-17.429-6.565-19.388
		c-1.348-3.843-8.822-5.991-8.822-5.991s4.639-3.093,4.619-4.998c-0.096-9.076-10.596-23.153-13.723-23.161
		c-8.301-0.02-11.164-16.097-17.951-17.326c-6.787-1.229-0.602-15.145-8.333-13.598c-7.731,1.546-81.951,9.276-94.32,35.562
		C297.382,179.071,312.843,175.98,312.843,175.98z"/>
	<path fill="#231F20" d="M425.284,145.639c0,0-55.323,4.123-59.103,7.903c-3.78,3.78-2.749,5.842,6.186,4.467
		c8.934-1.374,51.543-10.652,61.508-7.216L425.284,145.639z"/>
	<path fill="#231F20" d="M391.366,159.978c0,0,47.025-2.887,42.35,6.965C429.04,176.795,400.767,160.24,391.366,159.978z"/>
	<path fill="none" stroke="#231F20" stroke-width="10" d="M435.925,292.573c-22.367,7.193-32.897,19.823-32.415,21.293
		c7.612,23.221,30.608,36.531,51.363,29.727c20.754-6.803,31.407-31.144,23.795-54.365
		C477.466,285.559,458.292,285.38,435.925,292.573z"/>
	<path fill="none" stroke="#000000" stroke-width="10" d="M334.485,323.822c-22.367,7.194-32.897,19.824-32.415,21.294
		c7.612,23.22,30.608,36.53,51.363,29.726c20.755-6.803,31.408-31.144,23.796-54.365
		C376.025,316.808,356.852,316.63,334.485,323.822z"/>
	<path fill="none" stroke="#231F20" stroke-width="13" d="M402.415,316.624c0,0-22.596,6.25-25,9.615"/>
	<polygon points="298.571,341.303 244.726,352.2 251.136,361.815 306.263,357.969 	"/>
	<path fill="#FFFFFF" stroke="#231F20" d="M463.63,284.573c0,0-42.21,4.812-52.675,18.752c0,0,0.16,2.327,2.996,0.799
		c4.167-2.243,19.872-14.102,50-16.666C463.951,287.458,465.875,285.214,463.63,284.573z"/>
	<path fill="#FFFFFF" d="M287.032,345.47c0,0-38.46,6.73-38.46,9.134s6.73-0.48,10.096-0.961
		C262.033,353.162,291.84,347.873,287.032,345.47z"/>
	<path fill="#FFFFFF" stroke="#231F20" d="M361.71,314.381c0,0-42.21,4.812-52.675,18.751c0,0,0.16,2.326,2.996,0.799
		c4.167-2.244,19.872-14.102,49.999-16.666C362.03,317.265,363.954,315.021,361.71,314.381z"/>
	<path fill="#FFFFFF" stroke="#231F20" stroke-width="6" d="M254.449,552.755l-2.884,10.096c0,0-23.075,8.653-20.19,20.191
		c2.884,11.536,2.884,24.518,2.884,24.518s-17.306,46.147-15.864,57.688c0.928,7.42-0.53,58.973,10.2,119.376
		c5.956,33.525,80.284,40.543,116.235,47.437c105.281,20.191,227.866-2.882,227.866-2.882l6.164-39.493
		c0,0,39.026,9.688,36.14-6.175c-2.883-15.863,118.262,24.518,149.99,18.748s76.438-24.517,76.438-43.266
		c0-9.307-0.355-20.743-0.715-31.844c-0.361-11.266-0.729-22.181-0.729-30.172c0-15.864-8.652-93.741-54.805-177.391
		c-46.15-83.647-63.455-124.029-69.225-139.895c-5.77-15.863-31.729-53.361-38.939-57.688c-7.213-4.326-14.42-25.959-21.633-28.844
		c-7.211-2.884-20.191-15.864-20.191-15.864s-10.094-5.768-18.748-7.211c-5.97-0.995-12.627-4.735-19.021-5.539
		c-2.875-0.361-5.696-0.129-8.379,1.212c-8.652,4.326-64.898,43.266-64.898,57.688c0,14.422,4.327,23.074,4.327,23.074
		s-18.749,10.097-10.097,21.634c8.653,11.537,8.653,10.095,20.191,17.306c11.538,7.212,21.633-1.441,25.959,7.212
		c1.332,2.665,5.809,4.78,11.744,6.395c13.348,3.625,34.074,4.699,43.061,3.7c12.979-1.441,36.055,36.057,43.266,67.784
		c7.21,31.728,18.748,77.879,21.634,106.724c2.884,28.844-1.442,66.341-1.442,70.667s-18.748-1.442-18.748-1.442
		s-2.886-40.379-17.308-41.822c-14.421-1.44-51.919-8.651-62.015-8.651c-10.094,0-28.844,0-30.285,5.769
		c0,0-11.538-18.75-36.055-18.75c-24.518,0-50.672-8.333-57.787-16.424C453.472,558.525,254.449,552.755,254.449,552.755"/>
	<path fill="none" stroke="#231F20" stroke-width="8" d="M619.235,780.077c-59.13,2.885-59.04-81.659-56.155-100.406
		s37.498-38.938,37.498-38.938l63.455,5.767"/>
	<path fill="#231F20" d="M563.08,779.18c0,0-41.824-56.247-47.593-60.571c-5.769-4.327-46.151-28.845-33.171-4.327
		S548.658,777.738,563.08,779.18z"/>
	<path fill="#231F20" stroke="#231F20" stroke-width="3" d="M509.718,770.525c0,0-28.844,15.862-50.477,17.307
		c-21.634,1.442-74.995-38.938-80.764-46.149c-5.769-7.211-17.306-27.401-37.497-28.845c-20.191-1.44-40.382,1.442-15.864,17.309
		c24.517,15.862,62.015,33.17,80.764,43.266C424.629,783.507,456.357,799.369,509.718,770.525z"/>
	<path fill="#231F20" stroke="#231F20" stroke-width="2" d="M554.813,606.521c0,0-45.095,36.612-43.653,66.897
		c0,0,0-44.709,33.17-79.32L554.813,606.521z"/>
	<path fill="#231F20" d="M831.73,731.036c0,0-28.846,5.769-36.537-27.883c-7.691-33.653-31.73-105.768-39.422-149.997
		s-35.576-141.342-46.152-158.649c-10.576-17.308-52.884-67.307-82.691-93.268c-29.807-25.96-21.131-37.905-29.508-36.692
		c-8.379,1.212,27.764,2.268,37.77,12.75c10.008,10.482,20.191,15.864,20.191,15.864l14.096,18.416l6.971,11.778l14.902,16.106
		l22.115,34.134c0,0,62.818,138.857,74.998,152.318c12.178,13.462,35.896,82.049,37.178,91.022
		c1.283,8.974,14.105,62.179,14.105,73.717c0,11.537,0,39.101,0,39.101S833.333,731.038,831.73,731.036z"/>
	<path fill="none" stroke="#231F20" stroke-width="4" d="M587.505,328.162l-24.039,23.076c0,0-20.002-7.51-35-4.718"/>
	<path fill="#FFFFFF" stroke="#231F20" stroke-width="5" d="M536.869,780.249c0,0,27.772,8.796,40.465,8.938"/>
	<path fill="#FFFFFF" stroke="#231F20" stroke-width="5" d="M564.522,206.628c0,0-18.749,12.98-24.519,4.327
		c-5.769-8.653,8.654-24.518,15.865-24.518c0,0-14.423-23.075-37.498-23.075c-23.076,0-41.824,25.959-49.035,43.266
		c-7.209,17.306-1.441,28.844-1.441,28.844s15.865-12.979,24.518-10.095c8.653,2.884,12.98,14.422,0,23.075
		c-12.979,8.653-12.979,8.653-12.979,8.653s25.96,18.749,33.171,20.191c7.21,1.442,37.497,67.783,37.497,67.783l13.367,6.159
		l24.037-23.076c0,0-27.31-73.941-27.31-79.71C560.195,242.683,574.619,216.724,564.522,206.628z"/>
	<path fill="none" stroke="#231F20" stroke-width="3" d="M549.686,179.447c0,0-15.384,7.372-23.396,22.756
		c-8.013,15.384-20.192,12.5-27.564,12.82s-26.922,8.013-30.77,12.179"/>
	<path fill="none" stroke="#231F20" stroke-width="3" d="M484.944,225.279c0,0,14.743-8.974,20.833,0
		c6.09,8.974,9.295,26.281-15.062,35.576l-4.487,3.205"/>
	<path fill="none" stroke="#231F20" stroke-width="3" d="M543.757,192.829c0,0-7.33,4.544-10.817,10.577
		c-3.269,5.651-3.206,14.617,3.927,18.028c14.742,7.05,28.524-5.45,30.768-8.013"/>
	<path fill="none" stroke="#231F20" stroke-width="3" d="M566.033,223.676c0,0-8.334,5.45-13.462,6.09
		c-5.127,0.64-22.435-5.77-30.127,2.563s-8.333,22.116-16.987,27.563c-8.652,5.449-11.537,7.372-11.537,7.372"/>
	<polyline fill="none" stroke="#231F20" stroke-width="5" points="577.25,336.174 547.763,265.343 532.701,273.676 564.75,346.431 
		566.033,348.674 	"/>
	<polyline fill="none" stroke="#231F20" stroke-width="5" points="536.225,275.6 546.481,270.471 575.328,337.777 	"/>
	<ellipse fill="#FFFFFF" stroke="#231F20" stroke-width="5" cx="504.014" cy="190.344" rx="6.891" ry="5.449"/>
	<path fill="#231F20" d="M540.71,352.199c0,0-6.088,15.064-6.088,18.269C534.623,373.673,524.686,361.173,540.71,352.199z"/>
	<path fill="none" stroke="#231F20" stroke-width="4" d="M688.55,665.247c0,0-5.77-8.652-5.77-25.959"/>
	<path fill="#FFFFFF" stroke="#231F20" stroke-width="5" d="M248.09,550.271c0,0,7.692-15.385,1.923-26.923
		c-4.095-8.188-10.482-25.927,17.307-34.613c11.363-3.555,78.64,3.476,88.459,3.846c75.39,2.831,84.613,13.461,84.613,13.461
		l20.191,60.576c0,0-5.058,3.739-7.691-0.962c-6.658-11.885-15.513-40.192-18.269-42.947c-3.846-3.847-3.846,38.46-3.846,38.46
		S282.705,573.349,248.09,550.271z"/>
	<path fill="#231F20" d="M249.373,518.221c0,0,25,16.024,37.82,16.667c12.82,0.642,17.948,12.181,2.564,10.898
		c-15.384-1.283-35.255-7.694-40.384-3.206C249.373,542.58,260.27,529.118,249.373,518.221z"/>
	<path fill="#FFFFFF" d="M267.441,484.287c0,0-9.856,3.966-9.415,12.461c0.5,9.628,12.5,0.961,12.5,0.961s-7.932-5.17,0.401-12.219
		L267.441,484.287z"/>
	<path fill="#FFFFFF" stroke="#231F20" stroke-width="5" d="M241.792,351.466c0,0,5.499-105.147,22.679-136.76
		c17.181-31.613-18.555-33.674-18.555-33.674s-97.245,39.515-98.62,46.389c-1.375,6.873,4.468,33.331,7.217,38.141
		c2.75,4.811,4.811-1.375,7.56-3.436c0,0-13.745,5.497,0,21.304c13.745,15.806,10.309,26.802,25.428,28.177
		C202.62,312.98,229.422,365.898,241.792,351.466z"/>
	<path fill="#231F20" d="M221.862,271.746c-4.333,8.92-10.308-2.062-26.114,28.863c0,0,0.686-17.867,15.806-32.987
		C219.044,260.131,226.117,262.988,221.862,271.746z"/>
	<path fill="#231F20" d="M161.041,259.548c11.461-6.549,45.016-25.601,45.016-25.601s-43.983,29.551-47.419,41.921
		C155.201,288.239,156.229,262.298,161.041,259.548z"/>
	<path fill="#231F20" d="M203.478,321.229c0,0,11.855-18.556,16.494-33.503c4.638-14.948,8.247-16.494,11.339-17.525
		c0,0-6.701,13.916-9.277,26.287c-2.576,12.371-10.309,29.379-11.855,32.472C208.632,332.053,203.478,321.229,203.478,321.229z"/>
	<path fill="#231F20" d="M232.342,359.885"/>
	<g>
		<path fill="#FFFFFF" stroke="#231F20" stroke-width="5" d="M179.118,263.774c0,0,26.756-17.257,46.814-18.578
			c20.057-1.321,79.435-40.871,61.245-58.268c-18.192-17.396-44.116-11.042-64.192,13.524
			c-20.076,24.566-33.04,41.329-44.061,62.199"/>
		<path fill="#FFFFFF" stroke="#231F20" stroke-width="5" d="M393.582,102.334c0,0-81.343,19.821-98.084,32.287
			c-16.742,12.466-41.549,35.794-15.847,49.599c25.704,13.804,63.031-15.514,83.148-47.316
			C382.916,105.103,389.021,103.667,393.582,102.334z"/>
		<path fill="#231F20" d="M221.872,226.965c0,0,24.295-51.685,46.523-42.083c22.229,9.6,3.353,18.7,3.276,24.055
			c0,0,1.55-14.706-3.824-13.444C262.474,196.753,220.591,222.93,221.872,226.965z"/>
		<path fill="#FFFFFF" stroke="#231F20" stroke-width="5" d="M266.692,183.523c0,0,2.929-18.271,18.115-15.139
			c15.186,3.132,19.131,0.289,19.538,6.46c0.407,6.172-1.312,11.451-14.752,11.303c0,0,0.739,19.063-6.936,12.336
			C274.982,191.759,265.996,196.482,266.692,183.523z"/>
		<path fill="#FFFFFF" stroke="#231F20" stroke-width="5" d="M278.341,180.002c0,0,9.302,0.075,11.252,6.146"/>
	</g>
	<path stroke="#231F20" d="M344.649,222.751c0,0-9.928-12.706-10.147-1.08c0,0-44.642-22.046-52.118-22.596
		c-46.831-3.438-19.206,16.143-26.882,24.56c0,0-27.532-8.051-7.178,11.747c0,0-16.51-1.437-9.224,5.219
		c0,0-13.532,13.02-6.243,19.677c0.309,0.283-3.978-0.801-4.252-0.644c-4.51,2.577,8.375,5.283,8.375,5.283s8.634-1.675,3.576-8.016
		c0,0,2.511,4.567,2.322,8.03c-0.191,3.464,6.818,11.231,1.54,10.506c-5.278-0.728-13.626,0.286-9.496,6.331
		c4.131,6.048-5.136-3.323-6.862,1.011c-1.728,4.332-0.413,15.084,3.279,17.547c3.693,2.463,9.644,2.445,6.552-3.113
		c-3.093-5.552-4.794-9.38,0.289-5.192c5.083,4.189,8.662,1.089,9.97,0.463c1.311-0.62,4.583,5.553,1.218,12.485
		c-3.361,6.934-4.98,5.456-2.919,10.521c2.051,5.06-5.007-1.842,2.981,11.362"/>
	<polygon stroke="#000000" stroke-width="5" points="314.755,455.401 320.524,488.735 300.012,488.095 292.961,438.736 	"/>
	<g>
		<path fill="#FFFFFF" stroke="#231F20" stroke-width="9" d="M70.187,243.909c-32.202,59.773-50.481,128.158-50.481,200.81
			c0,234.174,189.834,424.008,424.006,424.008c60.833,0,118.67-12.813,170.968-35.887l-33.132-38.562
			c-43.279,17.625-90.625,27.338-140.238,27.338c-205.498,0-372.087-166.588-372.087-372.088
			c0-61.801,14.074-120.082,40.735-171.374"/>
	</g>
	<path fill="#FFFFFF" d="M588.623,795.482l-15.332,5.334l22.334,36.004c0,0,21-7.333,32.332-14
		C639.291,816.153,588.623,795.482,588.623,795.482z"/>
</g>
<g id="Layer_12">
	<path fill="none" stroke="#FFFFFF" stroke-width="5" d="M108.29,274.986"/>
	<polygon fill="#231F20" points="372.667,822.528 374.737,832.464 384.093,836.392 375.284,841.429 374.443,851.54 366.929,844.72 
		357.052,847.042 361.216,837.79 355.955,829.113 366.042,830.214 	"/>
	<polygon fill="#231F20" points="412.143,829.14 416.971,838.063 427.062,839.146 420.066,846.495 422.157,856.425 413.003,852.045 
		404.206,857.1 405.543,847.041 398.017,840.236 407.997,838.4 	"/>
	<polygon fill="#231F20" points="459.464,831.041 464.335,839.943 474.431,840.976 467.47,848.359 469.609,858.279 460.435,853.942 
		451.662,859.039 452.953,848.976 445.392,842.207 455.363,840.323 	"/>
	<polygon fill="#231F20" points="505.013,826.499 510.978,834.709 521.123,834.446 515.16,842.657 518.544,852.224 508.892,849.091 
		500.84,855.264 500.837,845.117 492.478,839.367 502.128,836.228 	"/>
	<polygon fill="#231F20" points="548.014,817.114 554.855,824.607 564.91,823.221 559.896,832.043 564.324,841.173 554.382,839.133 
		547.066,846.165 545.937,836.08 536.988,831.296 546.229,827.104 	"/>
	<path fill="none" stroke="#231F20" stroke-width="5" d="M338.893,828.053c0,0-203.99-23.998-283.486-286.484"/>
	<path fill="none" stroke="#231F20" stroke-width="5" d="M589.38,814.554c0,0,35.998-9,59.998-28.499"/>
	<path fill="none" stroke="#231F20" stroke-width="5" d="M812.869,583.565c0,0,21-58.497,24-97.495"/>
</g>
</svg>
